<svg width="15" height="14" viewBox="0 0 15 14" fill="none" xmlns="http://www.w3.org/2000/svg">
                        <g clip-path="url(#clip0_1_1444)">
                        <path d="M13.6773 6.85354C13.6773 10.3259 10.8585 13.1358 7.3752 13.1358C3.89187 13.1358 1.07312 10.3259 1.07312 6.85354C1.07312 3.38117 3.89187 0.571289 7.3752 0.571289C10.8585 0.571289 13.6773 3.38117 13.6773 6.85354ZM7.94812 2.3189C9.16843 2.4731 10.2799 3.11274 11.0247 4.08935L12.0216 3.51823C11.5508 2.85655 10.944 2.30244 10.2416 1.89278C9.53927 1.48312 8.75741 1.22732 7.94812 1.1424V2.3189ZM2.72885 3.51823L3.72572 4.08935C4.095 3.60547 4.55721 3.19971 5.08542 2.89575C5.61363 2.59178 6.19726 2.39569 6.80229 2.3189V1.1424C5.99299 1.22732 5.21113 1.48312 4.50876 1.89278C3.80639 2.30244 3.19962 2.85655 2.72885 3.51823ZM2.15593 9.1951L3.14708 8.62399C2.91166 8.06323 2.79043 7.46142 2.79043 6.85354C2.79043 6.24566 2.91166 5.64384 3.14708 5.08308L2.15593 4.51197C1.81886 5.24687 1.6444 6.04547 1.6444 6.85354C1.6444 7.6616 1.81886 8.46021 2.15593 9.1951ZM6.80229 11.3882C6.19726 11.3114 5.61363 11.1153 5.08542 10.8113C4.55721 10.5074 4.095 10.1016 3.72572 9.61773L2.72885 10.1888C3.19962 10.8505 3.80639 11.4046 4.50876 11.8143C5.21113 12.224 5.99299 12.4798 6.80229 12.5647V11.3882ZM12.0216 10.1888L11.0247 9.61773C10.6554 10.1016 10.1932 10.5074 9.66498 10.8113C9.13677 11.1153 8.55314 11.3114 7.94812 11.3882V12.5304C9.58093 12.3648 11.0648 11.5138 12.0216 10.1888ZM12.5945 9.1951C13.2762 7.71021 13.2762 5.99687 12.5945 4.51197L11.6033 5.08308C11.8387 5.64384 11.96 6.24566 11.96 6.85354C11.96 7.46142 11.8387 8.06323 11.6033 8.62399L12.5945 9.1951ZM9.09395 6.85354L7.3752 3.99797L5.65645 6.85354L7.3752 9.7091L9.09395 6.85354Z" fill="#C5C5C5"></path>
                        </g>
                        <defs>
                        <clipPath id="clip0_1_1444">
                        <rect width="13.75" height="13.7067" fill="white" transform="translate(0.5)"></rect>
                        </clipPath>
                        </defs>
                    </svg>