<svg width="25" height="25" viewBox="0 0 25 25" fill="none" xmlns="http://www.w3.org/2000/svg">
<path d="M18.0556 0C19.8973 0 21.6637 0.731645 22.966 2.03398C24.2684 3.33632 25 5.10266 25 6.94445V18.0556C25 19.8973 24.2684 21.6637 22.966 22.966C21.6637 24.2684 19.8973 25 18.0556 25H6.94445C5.10266 25 3.33632 24.2684 2.03398 22.966C0.731645 21.6637 0 19.8973 0 18.0556V6.94445C0 5.10266 0.731645 3.33632 2.03398 2.03398C3.33632 0.731645 5.10266 0 6.94445 0H18.0556ZM12.5 6.94445C11.0747 6.94444 9.70385 7.49227 8.67109 8.47462C7.63834 9.45696 7.02266 10.7987 6.95139 12.2222L6.94445 12.5C6.94445 13.5988 7.27027 14.6729 7.88073 15.5865C8.49118 16.5001 9.35884 17.2122 10.374 17.6327C11.3891 18.0532 12.5062 18.1632 13.5838 17.9488C14.6615 17.7344 15.6514 17.2053 16.4284 16.4284C17.2053 15.6514 17.7344 14.6615 17.9488 13.5838C18.1632 12.5062 18.0532 11.3891 17.6327 10.374C17.2122 9.35884 16.5001 8.49118 15.5865 7.88073C14.6729 7.27027 13.5988 6.94445 12.5 6.94445ZM18.75 4.86111C18.4098 4.86116 18.0815 4.98605 17.8273 5.2121C17.573 5.43816 17.4106 5.74965 17.3708 6.0875L17.3611 6.26389C17.3615 6.61789 17.4971 6.95838 17.7401 7.21579C17.9831 7.4732 18.3152 7.6281 18.6686 7.64885C19.022 7.6696 19.37 7.55462 19.6414 7.32741C19.9129 7.1002 20.0874 6.77791 20.1292 6.42639L20.1389 6.25C20.1389 5.88164 19.9926 5.52838 19.7321 5.26791C19.4716 5.00744 19.1184 4.86111 18.75 4.86111Z" fill="#FFFEFE"/>
</svg>
