<svg xmlns="http://www.w3.org/2000/svg" fill="none" viewBox="39.201166180758015 35.4 117.8396501457726 70.092" style="max-height: 500px" width="117.8396501457726" height="70.092">
<ellipse fill-opacity="0.08" fill="white" ry="7.5" rx="42.5" cy="80.5" cx="96.5"/>
<g filter="url(#filter0_d_845_764)">
<path fill="white" d="M50.0833 60.64H61.7233V63H42.3633V38.12H50.0833V60.64ZM78.9702 59.4V47.2C78.9702 46.6933 78.8902 46.36 78.7302 46.2C78.5702 46.04 78.2368 45.96 77.7302 45.96H73.4102C72.9035 45.96 72.5702 46.04 72.4102 46.2C72.2502 46.36 72.1702 46.6933 72.1702 47.2V59.4C72.1702 59.9333 72.2502 60.28 72.4102 60.44C72.5702 60.5733 72.9035 60.64 73.4102 60.64H77.7302C78.2368 60.64 78.5702 60.5733 78.7302 60.44C78.8902 60.28 78.9702 59.9333 78.9702 59.4ZM68.0102 43.6H83.1302C85.2368 43.6 86.2902 44.6533 86.2902 46.76V59.84C86.2902 61.9467 85.2368 63 83.1302 63H68.0102C65.9035 63 64.8502 61.9467 64.8502 59.84V46.76C64.8502 44.6533 65.9035 43.6 68.0102 43.6ZM99.7783 60.64H103.698C104.658 60.64 105.138 60.2267 105.138 59.4V47.2C105.138 46.3733 104.658 45.96 103.698 45.96H99.7783C99.2449 45.96 98.8983 46.04 98.7383 46.2C98.6049 46.36 98.5383 46.6933 98.5383 47.2V59.4C98.5383 59.9333 98.6049 60.28 98.7383 60.44C98.8983 60.5733 99.2449 60.64 99.7783 60.64ZM112.498 61.8H112.538V65.48C112.538 67.5867 111.485 68.64 109.378 68.64H92.2583V66.28H103.938C104.472 66.28 104.805 66.2 104.938 66.04C105.098 65.88 105.178 65.5467 105.178 65.04V62.12H105.138V61.84C104.765 62.6133 104.005 63 102.858 63H94.3383C92.2316 63 91.1783 61.9467 91.1783 59.84V46.76C91.1783 44.6533 92.2316 43.6 94.3383 43.6H102.858C104.005 43.6 104.765 43.9867 105.138 44.76V43.6H112.498V61.8ZM125.266 63H117.906V43.6H125.266V63ZM117.786 40.68V36.24H125.426V40.68H117.786ZM140.512 43.6H149.032C151.139 43.6 152.192 44.6533 152.192 46.76V63H144.832V47.2C144.832 46.6933 144.752 46.36 144.592 46.2C144.459 46.04 144.126 45.96 143.592 45.96H139.672C138.712 45.96 138.232 46.3733 138.232 47.2V63H130.872V43.6H138.232V44.76C138.606 43.9867 139.366 43.6 140.512 43.6Z"/>
</g>
<defs>
<filter color-interpolation-filters="sRGB" filterUnits="userSpaceOnUse" height="117" width="194.429" y="0.939991" x="0.063282" id="filter0_d_845_764">
<feFlood result="BackgroundImageFix" flood-opacity="0"/>
<feColorMatrix result="hardAlpha" values="0 0 0 0 0 0 0 0 0 0 0 0 0 0 0 0 0 0 127 0" type="matrix" in="SourceAlpha"/>
<feOffset dy="7"/>
<feGaussianBlur stdDeviation="21.15"/>
<feComposite operator="out" in2="hardAlpha"/>
<feColorMatrix values="0 0 0 0 1 0 0 0 0 1 0 0 0 0 1 0 0 0 0.25 0" type="matrix"/>
<feBlend result="effect1_dropShadow_845_764" in2="BackgroundImageFix" mode="normal"/>
<feBlend result="shape" in2="effect1_dropShadow_845_764" in="SourceGraphic" mode="normal"/>
</filter>
</defs>
</svg>