<svg width="186" height="60" viewBox="0 0 186 60" fill="none" xmlns="http://www.w3.org/2000/svg">
<mask id="path-1-outside-1_845_763" maskUnits="userSpaceOnUse" x="0" y="0" width="186" height="40" fill="black">
<rect fill="white" width="186" height="40"/>
<path d="M5.64014 27.2822C4.93376 28.1823 4.3527 28.6779 3.89697 28.769C3.45264 28.8716 3.08236 28.883 2.78613 28.8032C2.48991 28.7235 2.22786 28.5924 2 28.4102C1.52148 28 1.28223 27.4531 1.28223 26.7695C1.28223 26.2682 1.43604 25.7669 1.74365 25.2656C8.3859 14.7041 11.9976 8.9847 12.5786 8.10742C13.9458 6.07943 14.7376 4.9401 14.9541 4.68945L15.3813 4.17676C16.6574 2.70703 18.3151 1.97217 20.3545 1.97217C21.9382 1.97217 23.0205 2.31966 23.6016 3.01465C23.7383 3.16276 23.8066 3.44759 23.8066 3.86914C23.818 4.29069 23.8408 4.96289 23.875 5.88574L23.9604 8.8252C23.9946 9.86198 24.0345 10.9215 24.0801 12.0039L24.1826 15.1826C24.2738 17.2334 24.3535 18.9993 24.4219 20.4805C24.8662 19.6943 25.3162 18.7772 25.772 17.729L27.2246 14.4136C28.5462 11.4513 29.8223 9.11003 31.0527 7.38965C31.8275 6.28451 33.1035 5.73193 34.8809 5.73193C36.1911 5.73193 37.3646 6.01676 38.4014 6.58643C39.028 6.92822 39.3356 7.23014 39.3242 7.49219C39.3242 7.73145 39.2388 7.95931 39.0679 8.17578L38.709 8.67139C37.9001 9.79932 37.1025 10.9728 36.3164 12.1919L34.0264 15.832C30.8135 21.1413 28.9507 24.189 28.438 24.9751C27.9253 25.7612 27.5322 26.3138 27.2588 26.6328C26.9967 26.9404 26.6493 27.2025 26.2163 27.4189C25.7948 27.6354 25.3105 27.8291 24.7637 28C23.5788 28.376 22.5933 28.564 21.8071 28.564C20.4855 28.564 19.5911 28.376 19.124 28C18.6227 27.5443 17.9163 24.901 17.0049 20.0703L16.4238 16.8574C16.2415 15.7637 16.0763 14.6756 15.9282 13.5933C15.5522 14.1743 15.068 14.8636 14.4756 15.6611L9.45117 22.3604L5.64014 27.2822ZM43.2036 26.2227C42.5542 26.2227 41.9333 26.0802 41.3408 25.7954C40.7484 25.4992 40.2414 25.1061 39.8198 24.6162C38.4868 23.0895 38.2476 21.1755 39.1021 18.874C39.9338 16.6751 41.4661 14.0433 43.6992 10.9785C44.8499 9.40625 45.8753 8.1359 46.7754 7.16748C48.2679 5.56104 49.1908 4.75781 49.5439 4.75781C49.9085 4.75781 50.3073 4.87174 50.7402 5.09961C51.1846 5.32747 51.6004 5.6123 51.9878 5.9541C52.8765 6.77441 53.298 7.56055 53.2524 8.3125C53.2183 8.91634 52.6543 9.93604 51.5605 11.3716L50.0566 13.3027C46.7982 17.3587 46.0519 19.3867 47.8179 19.3867C48.2052 19.3867 48.604 19.2899 49.0142 19.0962C53.4803 17.0568 57.6331 14.1117 61.4727 10.2607L64.019 7.62891C64.7482 6.86556 65.3521 6.25602 65.8306 5.80029C66.3205 5.33317 66.7078 5.09961 66.9927 5.09961C67.2775 5.09961 67.5794 5.19645 67.8984 5.39014C68.2174 5.58382 68.4966 5.81738 68.7358 6.09082C69.2713 6.68327 69.5277 7.20736 69.5049 7.66309C69.2998 10.4886 67.494 15.2738 64.0874 22.0186C63.381 23.4313 62.6405 24.8327 61.8657 26.2227C59.8263 29.7546 58.3908 32.1471 57.5591 33.4004C56.7274 34.665 56.0096 35.6904 55.4058 36.4766C54.1069 38.1514 53.2069 38.9888 52.7056 38.9888C52.1473 38.9888 51.2017 38.4362 49.8687 37.3311C48.4559 36.1803 47.7495 35.2575 47.7495 34.5625C47.7495 34.346 48.1597 33.7137 48.98 32.6655L53.4233 27.0771C55.6906 24.1605 57.2344 22.1211 58.0547 20.959C59.8434 18.4069 61.1593 16.265 62.0024 14.5332C59.12 16.9258 57.1489 18.5265 56.0894 19.3354L53.1499 21.5059C48.6951 24.6504 45.3797 26.2227 43.2036 26.2227Z"/>
<path d="M76.3237 22.873C75.925 22.873 75.7256 22.6395 75.7256 22.1724C75.7256 21.728 75.8509 21.278 76.1016 20.8223C76.3636 20.3665 76.6086 20.0475 76.8364 19.8652C77.0643 19.6715 77.3092 19.5007 77.5713 19.3525C78.141 19.0563 78.6423 18.9082 79.0752 18.9082H88.9702C89.1525 18.9082 89.3234 18.9766 89.4829 19.1133C89.6424 19.2386 89.7222 19.4152 89.7222 19.6431C89.7222 20.0988 89.5684 20.583 89.2607 21.0957C88.9645 21.597 88.6056 22.0243 88.1841 22.3774C87.7739 22.7192 87.3524 22.8901 86.9194 22.8901L76.3237 22.873ZM101.087 26.9404C100.893 26.61 100.819 26.291 100.865 25.9834C100.922 25.6644 101.076 25.2542 101.326 24.7529C101.577 24.2402 101.919 23.6022 102.352 22.8389L103.855 20.2754L105.701 17.2334L107.786 13.9521L109.974 10.6709C107.228 11.3545 105.132 12.1691 103.685 13.1147C103.445 13.2743 103.24 13.4395 103.069 13.6104L102.488 14.1914C102.135 14.5446 101.788 14.7212 101.446 14.7212C101.104 14.7212 100.836 14.6813 100.643 14.6016C100.46 14.5104 100.312 14.3965 100.198 14.2598C99.9134 13.9294 99.8621 13.5648 100.044 13.166C100.534 11.5938 101.235 9.9873 102.146 8.34668C102.648 7.43522 103.047 6.91113 103.343 6.77441C105.507 5.84017 110.019 5.16227 116.878 4.74072C119.111 4.604 121.458 4.53564 123.919 4.53564C125.525 4.53564 127.052 5.111 128.499 6.26172C130.117 7.57194 130.926 9.21257 130.926 11.1836C130.926 13.7585 128.715 16.1966 124.295 18.498C121.845 19.7855 119.544 20.6855 117.391 21.1982C116.832 21.3236 116.399 21.3862 116.092 21.3862C115.796 21.3862 115.454 21.3464 115.066 21.2666C114.69 21.1868 114.349 21.0729 114.041 20.9248C113.312 20.5602 112.947 20.1216 112.947 19.6089C112.947 18.8797 113.648 18.1392 115.049 17.3872L118.724 15.4048C120.9 14.2427 122.244 13.3996 122.757 12.8755C123.27 12.3514 123.526 11.9242 123.526 11.5938C123.526 11.252 123.458 10.9386 123.321 10.6538C123.195 10.369 123.019 10.1126 122.791 9.88477C122.301 9.39486 121.777 9.1499 121.219 9.1499C120.057 9.1499 118.655 9.24105 117.015 9.42334L114.93 13.0977C112.264 17.9398 110.452 22.292 109.495 26.1543C109.108 27.6582 107.644 28.4102 105.103 28.4102C103.007 28.4102 101.668 27.9202 101.087 26.9404ZM159.449 15.1655C159.813 15.1655 159.996 15.4731 159.996 16.0884C159.996 17.1479 159.255 18.5208 157.774 20.207L156.8 21.1982C153.849 24.1491 151.069 26.1144 148.46 27.0942C146.842 27.6981 145.68 27.6696 144.974 27.0088C144.393 26.4505 143.931 25.5505 143.589 24.3086L143.179 22.8218L139.539 25.0605L137.437 26.2568C134.931 27.624 133.051 28.3076 131.797 28.3076C130.191 28.3076 128.852 27.6867 127.781 26.4448C126.756 25.2713 126.243 23.9098 126.243 22.3604C126.243 20.8337 126.853 19.4722 128.072 18.2759C129.815 16.5669 132.566 15.0003 136.326 13.5762C139.881 12.2432 142.752 11.5767 144.939 11.5767C145.68 11.5767 146.05 11.9412 146.05 12.6704C146.05 13.1717 145.953 13.5477 145.76 13.7983C145.566 14.049 145.167 14.3053 144.563 14.5674L142.41 15.4902C139.22 16.8232 136.884 18.2075 135.403 19.6431C134.982 20.0418 134.771 20.4292 134.771 20.8052C134.771 21.1812 135.073 21.3691 135.677 21.3691C136.269 21.3691 137.648 20.7311 139.812 19.4551L141.231 18.6177C143.43 17.2961 145.27 16.6353 146.751 16.6353C148.004 16.6353 148.836 17.1878 149.246 18.293C149.349 18.5892 149.445 18.8911 149.537 19.1987C149.628 19.495 149.719 19.7627 149.81 20.002C150.015 20.5602 150.197 20.8394 150.357 20.8394C150.528 20.8394 150.767 20.7596 151.075 20.6001C151.382 20.4292 151.718 20.2184 152.083 19.9678C152.459 19.7057 152.846 19.4209 153.245 19.1133L155.313 17.4556C157.147 15.9289 158.526 15.1655 159.449 15.1655ZM161.995 20.7368C161.995 21.2609 162.343 21.5229 163.038 21.5229C164.45 21.5229 166.854 19.7627 170.25 16.2422L171.907 14.5674C173.035 13.4622 173.781 12.9097 174.146 12.9097C174.511 12.9097 174.835 12.9723 175.12 13.0977C175.405 13.223 175.656 13.3825 175.872 13.5762C176.316 13.9749 176.539 14.4022 176.539 14.8579C176.539 15.3022 176.487 15.7979 176.385 16.3447C176.294 16.8802 176.146 17.484 175.94 18.1562C175.564 19.4095 174.887 21.09 173.907 23.1978L173.206 24.7017L176.111 22.0698L182.059 16.9771C182.662 16.5213 183.164 16.2935 183.562 16.2935C184.428 16.2935 184.861 16.7093 184.861 17.541C184.861 18.3955 184.303 19.495 183.187 20.8394C182.845 21.2609 182.474 21.654 182.076 22.0186L178.042 25.522L170.181 32.1699C169.486 32.7738 168.962 33.2523 168.609 33.6055C168.187 34.2891 167.857 34.7961 167.618 35.1265C167.39 35.4683 167.162 35.8271 166.934 36.2031C166.706 36.5905 166.484 36.9209 166.268 37.1943C165.8 37.7868 165.333 38.083 164.866 38.083C164.376 38.083 163.903 37.8836 163.448 37.4849C162.605 36.7443 162.183 36.0835 162.183 35.5024C162.183 34.9214 162.343 34.2435 162.662 33.4688C162.981 32.7054 163.396 31.8281 163.909 30.8369L167.532 24.1548C165.789 25.7271 164.422 26.7695 163.431 27.2822C162.439 27.7835 161.602 28.1139 160.918 28.2734C160.246 28.4443 159.528 28.5298 158.765 28.5298C158.013 28.5298 157.352 28.3703 156.783 28.0513C156.213 27.7437 155.74 27.3278 155.364 26.8037C154.635 25.7669 154.271 24.4168 154.271 22.7534C154.271 20.9875 154.715 19.2443 155.604 17.5239C156.458 15.8377 157.586 14.4819 158.987 13.4565C160.468 12.3628 161.989 11.8159 163.55 11.8159C165.111 11.8159 165.892 12.4255 165.892 13.6445C165.892 14.4079 165.242 15.5415 163.943 17.0454C162.645 18.5379 161.995 19.7684 161.995 20.7368Z"/>
</mask>
<path d="M5.64014 27.2822C4.93376 28.1823 4.3527 28.6779 3.89697 28.769C3.45264 28.8716 3.08236 28.883 2.78613 28.8032C2.48991 28.7235 2.22786 28.5924 2 28.4102C1.52148 28 1.28223 27.4531 1.28223 26.7695C1.28223 26.2682 1.43604 25.7669 1.74365 25.2656C8.3859 14.7041 11.9976 8.9847 12.5786 8.10742C13.9458 6.07943 14.7376 4.9401 14.9541 4.68945L15.3813 4.17676C16.6574 2.70703 18.3151 1.97217 20.3545 1.97217C21.9382 1.97217 23.0205 2.31966 23.6016 3.01465C23.7383 3.16276 23.8066 3.44759 23.8066 3.86914C23.818 4.29069 23.8408 4.96289 23.875 5.88574L23.9604 8.8252C23.9946 9.86198 24.0345 10.9215 24.0801 12.0039L24.1826 15.1826C24.2738 17.2334 24.3535 18.9993 24.4219 20.4805C24.8662 19.6943 25.3162 18.7772 25.772 17.729L27.2246 14.4136C28.5462 11.4513 29.8223 9.11003 31.0527 7.38965C31.8275 6.28451 33.1035 5.73193 34.8809 5.73193C36.1911 5.73193 37.3646 6.01676 38.4014 6.58643C39.028 6.92822 39.3356 7.23014 39.3242 7.49219C39.3242 7.73145 39.2388 7.95931 39.0679 8.17578L38.709 8.67139C37.9001 9.79932 37.1025 10.9728 36.3164 12.1919L34.0264 15.832C30.8135 21.1413 28.9507 24.189 28.438 24.9751C27.9253 25.7612 27.5322 26.3138 27.2588 26.6328C26.9967 26.9404 26.6493 27.2025 26.2163 27.4189C25.7948 27.6354 25.3105 27.8291 24.7637 28C23.5788 28.376 22.5933 28.564 21.8071 28.564C20.4855 28.564 19.5911 28.376 19.124 28C18.6227 27.5443 17.9163 24.901 17.0049 20.0703L16.4238 16.8574C16.2415 15.7637 16.0763 14.6756 15.9282 13.5933C15.5522 14.1743 15.068 14.8636 14.4756 15.6611L9.45117 22.3604L5.64014 27.2822ZM43.2036 26.2227C42.5542 26.2227 41.9333 26.0802 41.3408 25.7954C40.7484 25.4992 40.2414 25.1061 39.8198 24.6162C38.4868 23.0895 38.2476 21.1755 39.1021 18.874C39.9338 16.6751 41.4661 14.0433 43.6992 10.9785C44.8499 9.40625 45.8753 8.1359 46.7754 7.16748C48.2679 5.56104 49.1908 4.75781 49.5439 4.75781C49.9085 4.75781 50.3073 4.87174 50.7402 5.09961C51.1846 5.32747 51.6004 5.6123 51.9878 5.9541C52.8765 6.77441 53.298 7.56055 53.2524 8.3125C53.2183 8.91634 52.6543 9.93604 51.5605 11.3716L50.0566 13.3027C46.7982 17.3587 46.0519 19.3867 47.8179 19.3867C48.2052 19.3867 48.604 19.2899 49.0142 19.0962C53.4803 17.0568 57.6331 14.1117 61.4727 10.2607L64.019 7.62891C64.7482 6.86556 65.3521 6.25602 65.8306 5.80029C66.3205 5.33317 66.7078 5.09961 66.9927 5.09961C67.2775 5.09961 67.5794 5.19645 67.8984 5.39014C68.2174 5.58382 68.4966 5.81738 68.7358 6.09082C69.2713 6.68327 69.5277 7.20736 69.5049 7.66309C69.2998 10.4886 67.494 15.2738 64.0874 22.0186C63.381 23.4313 62.6405 24.8327 61.8657 26.2227C59.8263 29.7546 58.3908 32.1471 57.5591 33.4004C56.7274 34.665 56.0096 35.6904 55.4058 36.4766C54.1069 38.1514 53.2069 38.9888 52.7056 38.9888C52.1473 38.9888 51.2017 38.4362 49.8687 37.3311C48.4559 36.1803 47.7495 35.2575 47.7495 34.5625C47.7495 34.346 48.1597 33.7137 48.98 32.6655L53.4233 27.0771C55.6906 24.1605 57.2344 22.1211 58.0547 20.959C59.8434 18.4069 61.1593 16.265 62.0024 14.5332C59.12 16.9258 57.1489 18.5265 56.0894 19.3354L53.1499 21.5059C48.6951 24.6504 45.3797 26.2227 43.2036 26.2227Z" fill="#A82DF4"/>
<path d="M76.3237 22.873C75.925 22.873 75.7256 22.6395 75.7256 22.1724C75.7256 21.728 75.8509 21.278 76.1016 20.8223C76.3636 20.3665 76.6086 20.0475 76.8364 19.8652C77.0643 19.6715 77.3092 19.5007 77.5713 19.3525C78.141 19.0563 78.6423 18.9082 79.0752 18.9082H88.9702C89.1525 18.9082 89.3234 18.9766 89.4829 19.1133C89.6424 19.2386 89.7222 19.4152 89.7222 19.6431C89.7222 20.0988 89.5684 20.583 89.2607 21.0957C88.9645 21.597 88.6056 22.0243 88.1841 22.3774C87.7739 22.7192 87.3524 22.8901 86.9194 22.8901L76.3237 22.873ZM101.087 26.9404C100.893 26.61 100.819 26.291 100.865 25.9834C100.922 25.6644 101.076 25.2542 101.326 24.7529C101.577 24.2402 101.919 23.6022 102.352 22.8389L103.855 20.2754L105.701 17.2334L107.786 13.9521L109.974 10.6709C107.228 11.3545 105.132 12.1691 103.685 13.1147C103.445 13.2743 103.24 13.4395 103.069 13.6104L102.488 14.1914C102.135 14.5446 101.788 14.7212 101.446 14.7212C101.104 14.7212 100.836 14.6813 100.643 14.6016C100.46 14.5104 100.312 14.3965 100.198 14.2598C99.9134 13.9294 99.8621 13.5648 100.044 13.166C100.534 11.5938 101.235 9.9873 102.146 8.34668C102.648 7.43522 103.047 6.91113 103.343 6.77441C105.507 5.84017 110.019 5.16227 116.878 4.74072C119.111 4.604 121.458 4.53564 123.919 4.53564C125.525 4.53564 127.052 5.111 128.499 6.26172C130.117 7.57194 130.926 9.21257 130.926 11.1836C130.926 13.7585 128.715 16.1966 124.295 18.498C121.845 19.7855 119.544 20.6855 117.391 21.1982C116.832 21.3236 116.399 21.3862 116.092 21.3862C115.796 21.3862 115.454 21.3464 115.066 21.2666C114.69 21.1868 114.349 21.0729 114.041 20.9248C113.312 20.5602 112.947 20.1216 112.947 19.6089C112.947 18.8797 113.648 18.1392 115.049 17.3872L118.724 15.4048C120.9 14.2427 122.244 13.3996 122.757 12.8755C123.27 12.3514 123.526 11.9242 123.526 11.5938C123.526 11.252 123.458 10.9386 123.321 10.6538C123.195 10.369 123.019 10.1126 122.791 9.88477C122.301 9.39486 121.777 9.1499 121.219 9.1499C120.057 9.1499 118.655 9.24105 117.015 9.42334L114.93 13.0977C112.264 17.9398 110.452 22.292 109.495 26.1543C109.108 27.6582 107.644 28.4102 105.103 28.4102C103.007 28.4102 101.668 27.9202 101.087 26.9404ZM159.449 15.1655C159.813 15.1655 159.996 15.4731 159.996 16.0884C159.996 17.1479 159.255 18.5208 157.774 20.207L156.8 21.1982C153.849 24.1491 151.069 26.1144 148.46 27.0942C146.842 27.6981 145.68 27.6696 144.974 27.0088C144.393 26.4505 143.931 25.5505 143.589 24.3086L143.179 22.8218L139.539 25.0605L137.437 26.2568C134.931 27.624 133.051 28.3076 131.797 28.3076C130.191 28.3076 128.852 27.6867 127.781 26.4448C126.756 25.2713 126.243 23.9098 126.243 22.3604C126.243 20.8337 126.853 19.4722 128.072 18.2759C129.815 16.5669 132.566 15.0003 136.326 13.5762C139.881 12.2432 142.752 11.5767 144.939 11.5767C145.68 11.5767 146.05 11.9412 146.05 12.6704C146.05 13.1717 145.953 13.5477 145.76 13.7983C145.566 14.049 145.167 14.3053 144.563 14.5674L142.41 15.4902C139.22 16.8232 136.884 18.2075 135.403 19.6431C134.982 20.0418 134.771 20.4292 134.771 20.8052C134.771 21.1812 135.073 21.3691 135.677 21.3691C136.269 21.3691 137.648 20.7311 139.812 19.4551L141.231 18.6177C143.43 17.2961 145.27 16.6353 146.751 16.6353C148.004 16.6353 148.836 17.1878 149.246 18.293C149.349 18.5892 149.445 18.8911 149.537 19.1987C149.628 19.495 149.719 19.7627 149.81 20.002C150.015 20.5602 150.197 20.8394 150.357 20.8394C150.528 20.8394 150.767 20.7596 151.075 20.6001C151.382 20.4292 151.718 20.2184 152.083 19.9678C152.459 19.7057 152.846 19.4209 153.245 19.1133L155.313 17.4556C157.147 15.9289 158.526 15.1655 159.449 15.1655ZM161.995 20.7368C161.995 21.2609 162.343 21.5229 163.038 21.5229C164.45 21.5229 166.854 19.7627 170.25 16.2422L171.907 14.5674C173.035 13.4622 173.781 12.9097 174.146 12.9097C174.511 12.9097 174.835 12.9723 175.12 13.0977C175.405 13.223 175.656 13.3825 175.872 13.5762C176.316 13.9749 176.539 14.4022 176.539 14.8579C176.539 15.3022 176.487 15.7979 176.385 16.3447C176.294 16.8802 176.146 17.484 175.94 18.1562C175.564 19.4095 174.887 21.09 173.907 23.1978L173.206 24.7017L176.111 22.0698L182.059 16.9771C182.662 16.5213 183.164 16.2935 183.562 16.2935C184.428 16.2935 184.861 16.7093 184.861 17.541C184.861 18.3955 184.303 19.495 183.187 20.8394C182.845 21.2609 182.474 21.654 182.076 22.0186L178.042 25.522L170.181 32.1699C169.486 32.7738 168.962 33.2523 168.609 33.6055C168.187 34.2891 167.857 34.7961 167.618 35.1265C167.39 35.4683 167.162 35.8271 166.934 36.2031C166.706 36.5905 166.484 36.9209 166.268 37.1943C165.8 37.7868 165.333 38.083 164.866 38.083C164.376 38.083 163.903 37.8836 163.448 37.4849C162.605 36.7443 162.183 36.0835 162.183 35.5024C162.183 34.9214 162.343 34.2435 162.662 33.4688C162.981 32.7054 163.396 31.8281 163.909 30.8369L167.532 24.1548C165.789 25.7271 164.422 26.7695 163.431 27.2822C162.439 27.7835 161.602 28.1139 160.918 28.2734C160.246 28.4443 159.528 28.5298 158.765 28.5298C158.013 28.5298 157.352 28.3703 156.783 28.0513C156.213 27.7437 155.74 27.3278 155.364 26.8037C154.635 25.7669 154.271 24.4168 154.271 22.7534C154.271 20.9875 154.715 19.2443 155.604 17.5239C156.458 15.8377 157.586 14.4819 158.987 13.4565C160.468 12.3628 161.989 11.8159 163.55 11.8159C165.111 11.8159 165.892 12.4255 165.892 13.6445C165.892 14.4079 165.242 15.5415 163.943 17.0454C162.645 18.5379 161.995 19.7684 161.995 20.7368Z" fill="#17191C"/>
<path d="M5.64014 27.2822L6.42682 27.8996L6.43082 27.8945L5.64014 27.2822ZM3.89697 28.769L3.70086 27.7885L3.68644 27.7913L3.67211 27.7947L3.89697 28.769ZM2 28.4102L1.34921 29.1694L1.36207 29.1804L1.3753 29.191L2 28.4102ZM1.74365 25.2656L0.897094 24.7332L0.89133 24.7426L1.74365 25.2656ZM12.5786 8.10742L11.7494 7.54841L11.7449 7.55522L12.5786 8.10742ZM14.9541 4.68945L15.7109 5.34307L15.7167 5.33641L15.7223 5.32964L14.9541 4.68945ZM15.3813 4.17676L14.6262 3.52116L14.6196 3.5288L14.6131 3.53657L15.3813 4.17676ZM23.6016 3.01465L22.8344 3.65607L22.8501 3.6749L22.8668 3.69293L23.6016 3.01465ZM23.8066 3.86914H22.8066V3.88265L22.807 3.89616L23.8066 3.86914ZM23.875 5.88574L24.8746 5.85668L24.8743 5.84873L23.875 5.88574ZM23.9604 8.8252L22.9609 8.85425L22.961 8.85814L23.9604 8.8252ZM24.0801 12.0039L25.0796 11.9717L25.0792 11.9618L24.0801 12.0039ZM24.1826 15.1826L23.1831 15.2149L23.1836 15.227L24.1826 15.1826ZM24.4219 20.4805L23.4229 20.5266L23.5831 23.9967L25.2924 20.9725L24.4219 20.4805ZM25.772 17.729L24.856 17.3277L24.8549 17.3303L25.772 17.729ZM27.2246 14.4136L26.3114 14.0061L26.3087 14.0123L27.2246 14.4136ZM31.0527 7.38965L31.8661 7.97142L31.8716 7.96368L31.0527 7.38965ZM38.4014 6.58643L37.9198 7.46285L37.9225 7.46432L38.4014 6.58643ZM39.3242 7.49219L38.3252 7.44875L38.3242 7.47046V7.49219H39.3242ZM39.0679 8.17578L38.283 7.55614L38.2701 7.57244L38.2579 7.58927L39.0679 8.17578ZM38.709 8.67139L37.899 8.08487L37.8964 8.0886L38.709 8.67139ZM36.3164 12.1919L35.4759 11.6499L35.47 11.6594L36.3164 12.1919ZM34.0264 15.832L33.1799 15.2995L33.1753 15.3069L33.1708 15.3143L34.0264 15.832ZM27.2588 26.6328L26.4995 25.982L26.4975 25.9843L27.2588 26.6328ZM26.2163 27.4189L25.7691 26.5245L25.7595 26.5294L26.2163 27.4189ZM24.7637 28L24.4654 27.0455L24.4612 27.0468L24.7637 28ZM19.124 28L18.4514 28.7399L18.4736 28.7602L18.497 28.779L19.124 28ZM17.0049 20.0703L16.0208 20.2483L16.0222 20.2557L17.0049 20.0703ZM16.4238 16.8574L15.4373 17.0218L15.4398 17.0354L16.4238 16.8574ZM15.9282 13.5933L16.919 13.4577L16.5534 10.7863L15.0887 13.05L15.9282 13.5933ZM14.4756 15.6611L15.2756 16.2611L15.2783 16.2575L14.4756 15.6611ZM9.45117 22.3604L10.2419 22.9726L10.2466 22.9665L10.2512 22.9604L9.45117 22.3604ZM5.64014 27.2822L4.85347 26.6648C4.52318 27.0857 4.2473 27.3791 4.02561 27.5681C3.79058 27.7686 3.68656 27.7913 3.70086 27.7885L3.89697 28.769L4.09309 29.7496C4.56311 29.6556 4.97749 29.3849 5.32351 29.0898C5.68288 28.7833 6.05071 28.3788 6.4268 27.8996L5.64014 27.2822ZM3.89697 28.769L3.67211 27.7947C3.31587 27.8769 3.12541 27.859 3.04611 27.8376L2.78613 28.8032L2.52616 29.7688C3.0393 29.907 3.58941 29.8663 4.12183 29.7434L3.89697 28.769ZM2.78613 28.8032L3.04611 27.8376C2.87593 27.7918 2.73952 27.7212 2.6247 27.6293L2 28.4102L1.3753 29.191C1.71621 29.4637 2.10389 29.6551 2.52616 29.7688L2.78613 28.8032ZM2 28.4102L2.65079 27.6509C2.41431 27.4482 2.28223 27.1892 2.28223 26.7695H1.28223H0.282227C0.282227 27.7171 0.628662 28.5518 1.34921 29.1694L2 28.4102ZM1.28223 26.7695H2.28223C2.28223 26.4828 2.36796 26.1602 2.59598 25.7886L1.74365 25.2656L0.89133 24.7426C0.504107 25.3736 0.282227 26.0537 0.282227 26.7695H1.28223ZM1.74365 25.2656L2.59016 25.798C9.23828 15.2271 12.8399 9.52394 13.4123 8.65962L12.5786 8.10742L11.7449 7.55522C11.1553 8.44546 7.53353 14.1811 0.897145 24.7332L1.74365 25.2656ZM12.5786 8.10742L13.4078 8.66641C14.0904 7.65387 14.6271 6.86656 15.019 6.30264C15.4271 5.71546 15.6451 5.41931 15.7109 5.34307L14.9541 4.68945L14.1973 4.03583C14.0466 4.21025 13.7605 4.60908 13.3767 5.16123C12.9768 5.73662 12.434 6.53297 11.7494 7.54843L12.5786 8.10742ZM14.9541 4.68945L15.7223 5.32964L16.1496 4.81694L15.3813 4.17676L14.6131 3.53657L14.1859 4.04927L14.9541 4.68945ZM15.3813 4.17676L16.1365 4.83236C17.2125 3.59303 18.589 2.97217 20.3545 2.97217V1.97217V0.972168C18.0412 0.972168 16.1023 1.82103 14.6262 3.52116L15.3813 4.17676ZM20.3545 1.97217V2.97217C21.8529 2.97217 22.5463 3.31154 22.8344 3.65607L23.6016 3.01465L24.3688 2.37323C23.4947 1.32778 22.0234 0.972168 20.3545 0.972168V1.97217ZM23.6016 3.01465L22.8668 3.69293C22.8208 3.64313 22.7973 3.6001 22.7875 3.57945C22.778 3.55923 22.7786 3.55438 22.783 3.57273C22.7927 3.61341 22.8066 3.7058 22.8066 3.86914H23.8066H24.8066C24.8066 3.61093 24.7864 3.35013 24.7278 3.10598C24.6706 2.86778 24.5614 2.58018 24.3364 2.33637L23.6016 3.01465ZM23.8066 3.86914L22.807 3.89616C22.8185 4.32306 22.8415 4.99952 22.8757 5.92275L23.875 5.88574L24.8743 5.84873C24.8401 4.92626 24.8175 4.25832 24.8063 3.84212L23.8066 3.86914ZM23.875 5.88574L22.8754 5.9148L22.9609 8.85425L23.9604 8.8252L24.96 8.79614L24.8746 5.85668L23.875 5.88574ZM23.9604 8.8252L22.961 8.85814C22.9953 9.8981 23.0353 10.9607 23.081 12.046L24.0801 12.0039L25.0792 11.9618C25.0337 10.8824 24.994 9.82586 24.9599 8.79225L23.9604 8.8252ZM24.0801 12.0039L23.0806 12.0361L23.1831 15.2149L24.1826 15.1826L25.1821 15.1504L25.0796 11.9717L24.0801 12.0039ZM24.1826 15.1826L23.1836 15.227C23.2748 17.2782 23.3545 19.0447 23.4229 20.5266L24.4219 20.4805L25.4208 20.4344C25.3525 18.954 25.2728 17.1886 25.1816 15.1382L24.1826 15.1826ZM24.4219 20.4805L25.2924 20.9725C25.7577 20.1494 26.2229 19.1999 26.689 18.1277L25.772 17.729L24.8549 17.3303C24.4096 18.3545 23.9747 19.2393 23.5513 19.9884L24.4219 20.4805ZM25.772 17.729L26.6879 18.1303L28.1406 14.8149L27.2246 14.4136L26.3087 14.0123L24.856 17.3277L25.772 17.729ZM27.2246 14.4136L28.1378 14.821C29.4449 11.8913 30.6895 9.61644 31.8661 7.9714L31.0527 7.38965L30.2394 6.8079C28.955 8.60361 27.6475 11.0113 26.3114 14.0061L27.2246 14.4136ZM31.0527 7.38965L31.8716 7.96368C32.4021 7.20691 33.3156 6.73193 34.8809 6.73193V5.73193V4.73193C32.8914 4.73193 31.2529 5.3621 30.2339 6.81562L31.0527 7.38965ZM34.8809 5.73193V6.73193C36.0412 6.73193 37.046 6.98272 37.9198 7.46284L38.4014 6.58643L38.8829 5.71001C37.6832 5.05081 36.341 4.73193 34.8809 4.73193V5.73193ZM38.4014 6.58643L37.9225 7.46432C38.0561 7.53719 38.1621 7.60221 38.2441 7.65875C38.3274 7.71611 38.3763 7.75809 38.4016 7.7829C38.4287 7.80951 38.4126 7.80069 38.3876 7.75319C38.3601 7.7007 38.3188 7.59408 38.3252 7.44875L39.3242 7.49219L40.3233 7.53562C40.3473 6.9832 40.0328 6.58154 39.8025 6.35553C39.5538 6.11145 39.229 5.89877 38.8802 5.70853L38.4014 6.58643ZM39.3242 7.49219H38.3242C38.3242 7.49229 38.3242 7.49199 38.3243 7.49138C38.3243 7.49077 38.3244 7.49013 38.3245 7.48955C38.3248 7.48815 38.3249 7.4886 38.3238 7.49141C38.3218 7.49661 38.3128 7.51839 38.283 7.55614L39.0679 8.17578L39.8528 8.79543C40.1407 8.43071 40.3242 7.98983 40.3242 7.49219H39.3242ZM39.0679 8.17578L38.2579 7.58927L37.899 8.08488L38.709 8.67139L39.5189 9.2579L39.8778 8.76229L39.0679 8.17578ZM38.709 8.67139L37.8964 8.0886C37.0774 9.23049 36.2707 10.4176 35.476 11.6499L36.3164 12.1919L37.1568 12.7338C37.9344 11.528 38.7227 10.3681 39.5216 9.25418L38.709 8.67139ZM36.3164 12.1919L35.47 11.6594L33.1799 15.2995L34.0264 15.832L34.8728 16.3645L37.1628 12.7244L36.3164 12.1919ZM34.0264 15.832L33.1708 15.3143C29.952 20.6333 28.1012 23.6609 27.6004 24.4288L28.438 24.9751L29.2756 25.5214C29.8001 24.7171 31.6749 21.6492 34.8819 16.3498L34.0264 15.832ZM28.438 24.9751L27.6004 24.4288C27.0898 25.2117 26.727 25.7166 26.4995 25.982L27.2588 26.6328L28.018 27.2836C28.3374 26.911 28.7608 26.3107 29.2756 25.5214L28.438 24.9751ZM27.2588 26.6328L26.4975 25.9843C26.338 26.1716 26.1052 26.3565 25.7691 26.5245L26.2163 27.4189L26.6635 28.3134C27.1933 28.0485 27.6555 27.7093 28.02 27.2813L27.2588 26.6328ZM26.2163 27.4189L25.7595 26.5294C25.3981 26.715 24.9686 26.8883 24.4654 27.0455L24.7637 28L25.0619 28.9545C25.6525 28.7699 26.1914 28.5559 26.6731 28.3085L26.2163 27.4189ZM24.7637 28L24.4612 27.0468C23.3243 27.4076 22.4489 27.564 21.8071 27.564V28.564V29.564C22.7376 29.564 23.8333 29.3444 25.0661 28.9532L24.7637 28ZM21.8071 28.564V27.564C21.1877 27.564 20.7078 27.5194 20.3508 27.4444C19.9842 27.3673 19.8143 27.2719 19.751 27.221L19.124 28L18.497 28.779C18.9009 29.1041 19.4117 29.2907 19.9394 29.4016C20.4769 29.5146 21.1049 29.564 21.8071 29.564V28.564ZM19.124 28L19.7967 27.2601C19.8525 27.3108 19.8495 27.3297 19.8022 27.2439C19.7616 27.1701 19.7073 27.0542 19.6413 26.8849C19.5095 26.5466 19.3567 26.0623 19.1844 25.4176C18.8407 24.1318 18.4417 22.2917 17.9875 19.8849L17.0049 20.0703L16.0222 20.2557C16.4796 22.6796 16.8894 24.5765 17.2522 25.934C17.4331 26.6108 17.6078 27.1747 17.7778 27.6112C17.8629 27.8293 17.9531 28.0324 18.0506 28.2092C18.1415 28.3741 18.2702 28.5752 18.4514 28.7399L19.124 28ZM17.0049 20.0703L17.9889 19.8923L17.4079 16.6795L16.4238 16.8574L15.4398 17.0354L16.0208 20.2483L17.0049 20.0703ZM16.4238 16.8574L17.4102 16.693C17.2295 15.6087 17.0658 14.5303 16.919 13.4577L15.9282 13.5933L14.9375 13.7288C15.0869 14.821 15.2536 15.9186 15.4374 17.0218L16.4238 16.8574ZM15.9282 13.5933L15.0887 13.05C14.7282 13.6071 14.2575 14.2778 13.6728 15.0648L14.4756 15.6611L15.2783 16.2575C15.8786 15.4494 16.3763 14.7415 16.7678 14.1365L15.9282 13.5933ZM14.4756 15.6611L13.6756 15.0611L8.65117 21.7604L9.45117 22.3604L10.2512 22.9604L15.2756 16.2611L14.4756 15.6611ZM9.45117 22.3604L8.66049 21.7481L4.84946 26.67L5.64014 27.2822L6.43082 27.8945L10.2419 22.9726L9.45117 22.3604ZM41.3408 25.7954L40.8936 26.6898L40.9005 26.6933L40.9075 26.6967L41.3408 25.7954ZM39.8198 24.6162L40.5779 23.964L40.5731 23.9585L39.8198 24.6162ZM39.1021 18.874L38.1667 18.5202L38.1646 18.526L39.1021 18.874ZM43.6992 10.9785L42.8923 10.3879L42.891 10.3896L43.6992 10.9785ZM46.7754 7.16748L47.5079 7.84826L47.508 7.84813L46.7754 7.16748ZM50.7402 5.09961L50.2745 5.98458L50.2839 5.98943L50.7402 5.09961ZM51.9878 5.9541L52.6661 5.2193L52.6578 5.21169L52.6494 5.20426L51.9878 5.9541ZM53.2524 8.3125L52.2543 8.252L52.254 8.25599L53.2524 8.3125ZM51.5605 11.3716L52.3496 11.986L52.356 11.9776L51.5605 11.3716ZM50.0566 13.3027L50.8362 13.929L50.841 13.9231L50.8456 13.9172L50.0566 13.3027ZM49.0142 19.0962L48.5988 18.1865L48.5872 18.1919L49.0142 19.0962ZM61.4727 10.2607L62.1808 10.9668L62.1861 10.9615L62.1913 10.9561L61.4727 10.2607ZM64.019 7.62891L64.7377 8.32426L64.7422 8.31964L64.019 7.62891ZM65.8306 5.80029L66.5202 6.52443L66.5206 6.52403L65.8306 5.80029ZM68.7358 6.09082L67.9833 6.74932L67.9886 6.75539L67.994 6.76136L68.7358 6.09082ZM69.5049 7.66309L70.5023 7.73548L70.5031 7.72426L70.5036 7.71302L69.5049 7.66309ZM64.0874 22.0186L63.1948 21.5677L63.193 21.5713L64.0874 22.0186ZM61.8657 26.2227L62.7317 26.7227L62.7355 26.7161L62.7392 26.7095L61.8657 26.2227ZM57.5591 33.4004L56.7259 32.8474L56.7236 32.8509L57.5591 33.4004ZM55.4058 36.4766L56.196 37.0894L56.1988 37.0857L55.4058 36.4766ZM49.8687 37.3311L50.5069 36.5612L50.5002 36.5557L49.8687 37.3311ZM48.98 32.6655L48.1972 32.0432L48.1925 32.0492L48.98 32.6655ZM53.4233 27.0771L54.2061 27.6995L54.2129 27.6909L53.4233 27.0771ZM58.0547 20.959L58.8717 21.5357L58.8736 21.5329L58.0547 20.959ZM62.0024 14.5332L62.9016 14.9709L61.3638 13.7637L62.0024 14.5332ZM56.0894 19.3354L56.6834 20.1399L56.6898 20.1352L56.6962 20.1303L56.0894 19.3354ZM53.1499 21.5059L53.7266 22.3228L53.7353 22.3167L53.7439 22.3103L53.1499 21.5059ZM43.2036 26.2227V25.2227C42.7061 25.2227 42.2331 25.1148 41.7741 24.8942L41.3408 25.7954L40.9075 26.6967C41.6335 27.0457 42.4023 27.2227 43.2036 27.2227V26.2227ZM41.3408 25.7954L41.788 24.901C41.3112 24.6626 40.9107 24.3508 40.5778 23.964L39.8198 24.6162L39.0618 25.2685C39.5721 25.8614 40.1855 26.3358 40.8936 26.6898L41.3408 25.7954ZM39.8198 24.6162L40.5731 23.9585C39.5363 22.7711 39.2805 21.2663 40.0395 19.2221L39.1021 18.874L38.1646 18.526C37.2146 21.0846 37.4373 23.4079 39.0666 25.2739L39.8198 24.6162ZM39.1021 18.874L40.0374 19.2278C40.8241 17.1477 42.2991 14.5983 44.5074 11.5674L43.6992 10.9785L42.891 10.3896C40.6332 13.4883 39.0434 16.2025 38.1667 18.5202L39.1021 18.874ZM43.6992 10.9785L44.5062 11.5691C45.6435 10.0151 46.6436 8.77818 47.5079 7.84826L46.7754 7.16748L46.0429 6.4867C45.1071 7.49363 44.0563 8.79741 42.8923 10.3879L43.6992 10.9785ZM46.7754 7.16748L47.508 7.84813C48.2458 7.05398 48.8217 6.48164 49.2434 6.11453C49.456 5.92949 49.6073 5.81615 49.705 5.75471C49.8489 5.66409 49.7623 5.75781 49.5439 5.75781V4.75781V3.75781C49.149 3.75781 48.8146 3.95194 48.6395 4.06212C48.4181 4.20148 48.1792 4.38935 47.9304 4.60592C47.4293 5.04204 46.7975 5.67453 46.0428 6.48683L46.7754 7.16748ZM49.5439 4.75781V5.75781C49.7003 5.75781 49.9381 5.8075 50.2745 5.98453L50.7402 5.09961L51.206 4.21469C50.6764 3.93599 50.1167 3.75781 49.5439 3.75781V4.75781ZM50.7402 5.09961L50.2839 5.98943C50.6517 6.17806 50.999 6.41525 51.3262 6.70394L51.9878 5.9541L52.6494 5.20426C52.2019 4.80936 51.7174 4.47689 51.1966 4.20979L50.7402 5.09961ZM51.9878 5.9541L51.3095 6.6889C52.1102 7.42796 52.273 7.94244 52.2543 8.252L53.2524 8.3125L54.2506 8.373C54.323 7.17866 53.6428 6.12087 52.6661 5.2193L51.9878 5.9541ZM53.2524 8.3125L52.254 8.25599C52.2501 8.32513 52.1933 8.56787 51.9288 9.04617C51.6794 9.49702 51.2966 10.0679 50.7651 10.7655L51.5605 11.3716L52.356 11.9776C52.9182 11.2397 53.3643 10.583 53.6789 10.0141C53.9783 9.47273 54.2206 8.90371 54.2508 8.36901L53.2524 8.3125ZM51.5605 11.3716L50.7716 10.7572L49.2677 12.6883L50.0566 13.3027L50.8456 13.9172L52.3495 11.986L51.5605 11.3716ZM50.0566 13.3027L49.2771 12.6764C47.6488 14.7032 46.5501 16.3369 46.1146 17.5204C45.9101 18.0763 45.7454 18.8082 46.071 19.4557C46.4517 20.2127 47.2291 20.3867 47.8179 20.3867V19.3867V18.3867C47.5236 18.3867 47.7322 18.3072 47.8579 18.5572C47.9285 18.6978 47.823 18.6692 47.9916 18.2111C48.3023 17.3665 49.206 15.9582 50.8362 13.929L50.0566 13.3027ZM47.8179 19.3867V20.3867C48.3761 20.3867 48.9202 20.2465 49.4412 20.0004L49.0142 19.0962L48.5872 18.1919C48.2878 18.3333 48.0344 18.3867 47.8179 18.3867V19.3867ZM49.0142 19.0962L49.4295 20.0058C54.0158 17.9116 58.2658 14.8935 62.1808 10.9668L61.4727 10.2607L60.7645 9.55468C57.0005 13.3298 52.9448 16.202 48.5988 18.1865L49.0142 19.0962ZM61.4727 10.2607L62.1913 10.9561L64.7377 8.32425L64.019 7.62891L63.3004 6.93356L60.754 9.5654L61.4727 10.2607ZM64.019 7.62891L64.7422 8.31964C65.466 7.56184 66.0578 6.96486 66.5202 6.52443L65.8306 5.80029L65.1409 5.07615C64.6463 5.54718 64.0304 6.16928 63.2959 6.93817L64.019 7.62891ZM65.8306 5.80029L66.5206 6.52403C66.736 6.31865 66.8964 6.19657 67.0049 6.13116C67.126 6.05815 67.1096 6.09961 66.9927 6.09961V5.09961V4.09961C66.5909 4.09961 66.2385 4.25785 65.9722 4.4184C65.6933 4.58655 65.415 4.81481 65.1405 5.07656L65.8306 5.80029ZM66.9927 5.09961V6.09961C67.046 6.09961 67.1695 6.11743 67.3795 6.24492L67.8984 5.39014L68.4174 4.53535C67.9894 4.27547 67.509 4.09961 66.9927 4.09961V5.09961ZM67.8984 5.39014L67.3795 6.24492C67.6134 6.38697 67.8132 6.55497 67.9833 6.74932L68.7358 6.09082L69.4884 5.43232C69.18 5.0798 68.8215 4.78067 68.4174 4.53535L67.8984 5.39014ZM68.7358 6.09082L67.994 6.76136C68.475 7.29361 68.5087 7.56184 68.5061 7.61315L69.5049 7.66309L70.5036 7.71302C70.5466 6.85287 70.0676 6.07292 69.4777 5.42028L68.7358 6.09082ZM69.5049 7.66309L68.5075 7.5907C68.4154 8.85947 67.9527 10.6555 67.0611 13.018C66.1752 15.3656 64.8888 18.2137 63.1948 21.5677L64.0874 22.0186L64.98 22.4694C66.6926 19.0787 68.0124 16.1617 68.9323 13.7242C69.8466 11.3015 70.3893 9.29222 70.5023 7.73548L69.5049 7.66309ZM64.0874 22.0186L63.193 21.5713C62.4933 22.9706 61.7598 24.3588 60.9922 25.7358L61.8657 26.2227L62.7392 26.7095C63.5212 25.3066 64.2687 23.892 64.9818 22.4658L64.0874 22.0186ZM61.8657 26.2227L60.9997 25.7226C58.9589 29.2569 57.538 31.6238 56.7259 32.8474L57.5591 33.4004L58.3923 33.9533C59.2436 32.6705 60.6937 30.2522 62.7317 26.7227L61.8657 26.2227ZM57.5591 33.4004L56.7236 32.8509C55.8991 34.1046 55.1961 35.1079 54.6127 35.8674L55.4058 36.4766L56.1988 37.0857C56.8231 36.273 57.5557 35.2255 58.3946 33.9499L57.5591 33.4004ZM55.4058 36.4766L54.6155 35.8637C53.9792 36.6843 53.4677 37.2637 53.0754 37.6286C52.8788 37.8115 52.7361 37.9179 52.6434 37.9733C52.5357 38.0376 52.5701 37.9888 52.7056 37.9888V38.9888V39.9888C53.0917 39.9888 53.4265 39.8352 53.6693 39.6902C53.9269 39.5362 54.1843 39.3286 54.4378 39.0929C54.9456 38.6204 55.5335 37.9436 56.196 37.0894L55.4058 36.4766ZM52.7056 38.9888V37.9888C52.7229 37.9888 52.6806 37.9912 52.5591 37.9465C52.4424 37.9036 52.2848 37.8293 52.0822 37.7109C51.6753 37.4732 51.1526 37.0965 50.5069 36.5612L49.8687 37.3311L49.2304 38.1009C49.9178 38.6707 50.5344 39.1229 51.0731 39.4377C51.5776 39.7325 52.1477 39.9888 52.7056 39.9888V38.9888ZM49.8687 37.3311L50.5002 36.5557C49.8243 36.0052 49.3603 35.5429 49.0734 35.1681C48.772 34.7743 48.7495 34.5857 48.7495 34.5625H47.7495H46.7495C46.7495 35.2343 47.0803 35.8546 47.4852 36.3837C47.9047 36.9318 48.5002 37.5062 49.2371 38.1064L49.8687 37.3311ZM47.7495 34.5625H48.7495C48.7495 34.7533 48.6815 34.8511 48.7268 34.7573C48.7525 34.7042 48.8046 34.6112 48.8961 34.4701C49.0774 34.1906 49.364 33.7973 49.7675 33.2818L48.98 32.6655L48.1925 32.0492C47.7756 32.5819 47.447 33.0289 47.2182 33.3817C47.1046 33.5568 47.0029 33.728 46.926 33.8871C46.8688 34.0055 46.7495 34.2635 46.7495 34.5625H47.7495ZM48.98 32.6655L49.7627 33.2879L54.2061 27.6995L53.4233 27.0771L52.6406 26.4548L48.1972 32.0432L48.98 32.6655ZM53.4233 27.0771L54.2129 27.6909C56.4793 24.7752 58.0364 22.719 58.8717 21.5357L58.0547 20.959L57.2377 20.3823C56.4324 21.5232 54.9019 23.5457 52.6338 26.4634L53.4233 27.0771ZM58.0547 20.959L58.8736 21.5329C60.6765 18.9606 62.0257 16.77 62.9016 14.9709L62.0024 14.5332L61.1033 14.0955C60.293 15.7599 59.0103 17.8533 57.2358 20.385L58.0547 20.959ZM62.0024 14.5332L61.3638 13.7637C58.4794 16.1578 56.5235 17.7459 55.4825 18.5406L56.0894 19.3354L56.6962 20.1303C57.7744 19.3072 59.7605 17.6937 62.6411 15.3027L62.0024 14.5332ZM56.0894 19.3354L55.4954 18.531L52.5559 20.7014L53.1499 21.5059L53.7439 22.3103L56.6834 20.1399L56.0894 19.3354ZM53.1499 21.5059L52.5732 20.6889C50.3725 22.2424 48.4813 23.387 46.8938 24.1399C45.29 24.9004 44.075 25.2227 43.2036 25.2227V26.2227V27.2227C44.5083 27.2227 46.0391 26.7587 47.7508 25.947C49.4786 25.1276 51.4726 23.9139 53.7266 22.3228L53.1499 21.5059ZM76.3237 22.873L76.3253 21.873H76.3237V22.873ZM76.1016 20.8223L75.2347 20.3238L75.2299 20.332L75.2253 20.3403L76.1016 20.8223ZM76.8364 19.8652L77.4611 20.6461L77.4727 20.6368L77.4841 20.6272L76.8364 19.8652ZM77.5713 19.3525L77.1099 18.4653L77.0944 18.4734L77.0792 18.482L77.5713 19.3525ZM89.4829 19.1133L88.8321 19.8725L88.8483 19.8864L88.8651 19.8996L89.4829 19.1133ZM89.2607 21.0957L88.4032 20.5812L88.3998 20.587L89.2607 21.0957ZM88.1841 22.3774L88.8243 23.1457L88.8263 23.144L88.1841 22.3774ZM86.9194 22.8901L86.9178 23.8901H86.9194V22.8901ZM76.3237 22.873V21.873C76.3194 21.873 76.3603 21.8722 76.4258 21.8977C76.4973 21.9257 76.5736 21.9759 76.6357 22.0486C76.7534 22.1865 76.7256 22.2871 76.7256 22.1724H75.7256H74.7256C74.7256 22.5248 74.7974 22.9757 75.1146 23.3471C75.4575 23.7489 75.9252 23.873 76.3237 23.873V22.873ZM75.7256 22.1724H76.7256C76.7256 21.9232 76.7944 21.6376 76.9778 21.3042L76.1016 20.8223L75.2253 20.3403C74.9074 20.9184 74.7256 21.5328 74.7256 22.1724H75.7256ZM76.1016 20.8223L76.9685 21.3207C77.21 20.9007 77.3801 20.7109 77.4611 20.6461L76.8364 19.8652L76.2117 19.0844C75.8371 19.3841 75.5173 19.8323 75.2347 20.3238L76.1016 20.8223ZM76.8364 19.8652L77.4841 20.6272C77.6633 20.4748 77.8561 20.3402 78.0633 20.2231L77.5713 19.3525L77.0792 18.482C76.7624 18.6611 76.4653 18.8683 76.1888 19.1033L76.8364 19.8652ZM77.5713 19.3525L78.0326 20.2398C78.5233 19.9846 78.8617 19.9082 79.0752 19.9082V18.9082V17.9082C78.4228 17.9082 77.7586 18.128 77.1099 18.4653L77.5713 19.3525ZM79.0752 18.9082V19.9082H88.9702V18.9082V17.9082H79.0752V18.9082ZM88.9702 18.9082V19.9082C88.9329 19.9082 88.8952 19.9005 88.8637 19.8879C88.8341 19.8761 88.824 19.8656 88.8321 19.8725L89.4829 19.1133L90.1337 18.354C89.8222 18.087 89.4271 17.9082 88.9702 17.9082V18.9082ZM89.4829 19.1133L88.8651 19.8996C88.8244 19.8676 88.7805 19.8167 88.751 19.7513C88.7231 19.6895 88.7222 19.6464 88.7222 19.6431H89.7222H90.7222C90.7222 19.1514 90.5335 18.667 90.1007 18.327L89.4829 19.1133ZM89.7222 19.6431H88.7222C88.7222 19.8694 88.646 20.1766 88.4033 20.5812L89.2607 21.0957L90.1182 21.6102C90.4907 20.9894 90.7222 20.3282 90.7222 19.6431H89.7222ZM89.2607 21.0957L88.3998 20.587C88.1579 20.9963 87.8714 21.3348 87.5419 21.6109L88.1841 22.3774L88.8263 23.144C89.3399 22.7137 89.7711 22.1977 90.1217 21.6044L89.2607 21.0957ZM88.1841 22.3774L87.5439 21.6092C87.2701 21.8373 87.0677 21.8901 86.9194 21.8901V22.8901V23.8901C87.6371 23.8901 88.2777 23.6011 88.8243 23.1457L88.1841 22.3774ZM86.9194 22.8901L86.921 21.8901L76.3253 21.873L76.3237 22.873L76.3221 23.873L86.9178 23.8901L86.9194 22.8901ZM101.087 26.9404L100.224 27.4462L100.227 27.4505L101.087 26.9404ZM100.865 25.9834L99.8803 25.8076L99.8777 25.8222L99.8755 25.8369L100.865 25.9834ZM101.326 24.7529L102.221 25.2002L102.225 25.1921L101.326 24.7529ZM102.352 22.8389L101.489 22.3329L101.485 22.3392L101.482 22.3455L102.352 22.8389ZM103.855 20.2754L103.001 19.7567L102.997 19.763L102.993 19.7694L103.855 20.2754ZM105.701 17.2334L104.857 16.6971L104.852 16.7058L104.846 16.7147L105.701 17.2334ZM107.786 13.9521L106.954 13.3974L106.948 13.4066L106.942 13.4158L107.786 13.9521ZM109.974 10.6709L110.806 11.2256L112.238 9.07653L109.732 9.70052L109.974 10.6709ZM103.685 13.1147L103.137 12.2776L103.13 12.2827L103.685 13.1147ZM100.643 14.6016L100.195 15.496L100.228 15.5123L100.262 15.5262L100.643 14.6016ZM100.198 14.2598L100.966 13.6196L100.961 13.6132L100.956 13.6068L100.198 14.2598ZM100.044 13.166L100.954 13.5818L100.98 13.5241L100.999 13.4635L100.044 13.166ZM102.146 8.34668L103.021 8.83233L103.023 8.8286L102.146 8.34668ZM103.343 6.77441L102.947 5.85627L102.935 5.86122L102.924 5.86646L103.343 6.77441ZM116.878 4.74072L116.817 3.74259L116.817 3.74261L116.878 4.74072ZM128.499 6.26172L129.128 5.48457L129.121 5.47905L128.499 6.26172ZM124.295 18.498L123.833 17.611L123.83 17.6129L124.295 18.498ZM117.391 21.1982L117.61 22.174L117.622 22.171L117.391 21.1982ZM115.066 21.2666L114.859 22.2449L114.865 22.2461L115.066 21.2666ZM114.041 20.9248L113.594 21.8192L113.6 21.8226L113.607 21.8258L114.041 20.9248ZM115.049 17.3872L115.522 18.2684L115.524 18.2673L115.049 17.3872ZM118.724 15.4048L118.253 14.5227L118.249 14.5247L118.724 15.4048ZM123.321 10.6538L122.405 11.0565L122.412 11.0717L122.419 11.0865L123.321 10.6538ZM117.015 9.42334L116.904 8.42946L116.397 8.48583L116.145 8.92982L117.015 9.42334ZM114.93 13.0977L114.06 12.6041L114.054 12.6153L114.93 13.0977ZM109.495 26.1543L110.464 26.4037L110.466 26.3948L109.495 26.1543ZM101.087 26.9404L101.95 26.4347C101.844 26.2541 101.849 26.1637 101.854 26.1299L100.865 25.9834L99.8755 25.8369C99.7894 26.4184 99.9427 26.966 100.224 27.4461L101.087 26.9404ZM100.865 25.9834L101.849 26.1592C101.881 25.9788 101.986 25.6685 102.221 25.2001L101.326 24.7529L100.432 24.3057C100.165 24.84 99.962 25.3499 99.8803 25.8076L100.865 25.9834ZM101.326 24.7529L102.225 25.1921C102.463 24.7047 102.794 24.0861 103.221 23.3322L102.352 22.8389L101.482 22.3455C101.043 23.1183 100.691 23.7757 100.428 24.3137L101.326 24.7529ZM102.352 22.8389L103.214 23.3449L104.718 20.7814L103.855 20.2754L102.993 19.7694L101.489 22.3329L102.352 22.8389ZM103.855 20.2754L104.71 20.7941L106.556 17.7521L105.701 17.2334L104.846 16.7147L103.001 19.7567L103.855 20.2754ZM105.701 17.2334L106.545 17.7697L108.63 14.4885L107.786 13.9521L106.942 13.4158L104.857 16.6971L105.701 17.2334ZM107.786 13.9521L108.618 14.5068L110.806 11.2256L109.974 10.6709L109.142 10.1162L106.954 13.3974L107.786 13.9521ZM109.974 10.6709L109.732 9.70052C106.938 10.3962 104.719 11.2443 103.137 12.2777L103.685 13.1147L104.232 13.9518C105.544 13.0939 107.518 12.3128 110.215 11.6413L109.974 10.6709ZM103.685 13.1147L103.13 12.2827C102.846 12.4721 102.587 12.678 102.362 12.9032L103.069 13.6104L103.776 14.3175C103.893 14.2009 104.045 14.0764 104.239 13.9468L103.685 13.1147ZM103.069 13.6104L102.362 12.9032L101.781 13.4843L102.488 14.1914L103.195 14.8985L103.776 14.3175L103.069 13.6104ZM102.488 14.1914L101.781 13.4843C101.529 13.7363 101.421 13.7212 101.446 13.7212V14.7212V15.7212C102.154 15.7212 102.741 15.3529 103.195 14.8985L102.488 14.1914ZM101.446 14.7212V13.7212C101.162 13.7212 101.044 13.6853 101.023 13.6769L100.643 14.6016L100.262 15.5262C100.629 15.6773 101.046 15.7212 101.446 15.7212V14.7212ZM100.643 14.6016L101.09 13.7071C101.013 13.6688 100.98 13.636 100.966 13.6196L100.198 14.2598L99.43 14.9C99.6442 15.157 99.9075 15.3521 100.195 15.496L100.643 14.6016ZM100.198 14.2598L100.956 13.6068C100.934 13.5818 100.928 13.5692 100.929 13.5702C100.929 13.5706 100.93 13.5737 100.932 13.5793C100.934 13.5849 100.935 13.5917 100.936 13.5993C100.937 13.6069 100.938 13.6137 100.938 13.6193C100.938 13.622 100.938 13.6241 100.937 13.6256C100.937 13.6271 100.937 13.6279 100.937 13.6278C100.937 13.6278 100.938 13.6241 100.94 13.6166C100.943 13.609 100.947 13.5974 100.954 13.5818L100.044 13.166L99.135 12.7503C98.9798 13.0896 98.899 13.4731 98.9559 13.8778C99.0129 14.2829 99.1966 14.6294 99.4408 14.9127L100.198 14.2598ZM100.044 13.166L100.999 13.4635C101.466 11.9649 102.138 10.4213 103.021 8.83232L102.146 8.34668L101.272 7.86104C100.332 9.55334 99.6026 11.2226 99.0897 12.8685L100.044 13.166ZM102.146 8.34668L103.023 8.8286C103.262 8.39435 103.46 8.08273 103.617 7.87554C103.799 7.63664 103.849 7.64215 103.762 7.68237L103.343 6.77441L102.924 5.86646C102.54 6.0434 102.243 6.37931 102.026 6.6645C101.785 6.98139 101.533 7.38755 101.27 7.86476L102.146 8.34668ZM103.343 6.77441L103.739 7.69256C104.699 7.27812 106.264 6.88992 108.499 6.55421C110.715 6.22119 113.526 5.94862 116.939 5.73884L116.878 4.74072L116.817 3.74261C113.371 3.95438 110.497 4.23153 108.202 4.57641C105.924 4.91859 104.151 5.33647 102.947 5.85627L103.343 6.77441ZM116.878 4.74072L116.939 5.73885C119.15 5.6035 121.476 5.53564 123.919 5.53564V4.53564V3.53564C121.44 3.53564 119.072 3.60451 116.817 3.74259L116.878 4.74072ZM123.919 4.53564V5.53564C125.266 5.53564 126.579 6.01212 127.877 7.04439L128.499 6.26172L129.121 5.47905C127.526 4.20988 125.785 3.53564 123.919 3.53564V4.53564ZM128.499 6.26172L127.87 7.03884C129.268 8.17148 129.926 9.53325 129.926 11.1836H130.926H131.926C131.926 8.89188 130.965 6.9724 129.128 5.4846L128.499 6.26172ZM130.926 11.1836H129.926C129.926 13.1362 128.227 15.3235 123.833 17.6111L124.295 18.498L124.757 19.385C129.204 17.0697 131.926 14.3807 131.926 11.1836H130.926ZM124.295 18.498L123.83 17.6129C121.437 18.8707 119.214 19.7362 117.159 20.2254L117.391 21.1982L117.622 22.171C119.874 21.6349 122.254 20.7003 124.76 19.3832L124.295 18.498ZM117.391 21.1982L117.172 20.2225C116.635 20.343 116.288 20.3862 116.092 20.3862V21.3862V22.3862C116.511 22.3862 117.03 22.3042 117.61 22.174L117.391 21.1982ZM116.092 21.3862V20.3862C115.882 20.3862 115.61 20.3575 115.268 20.2871L115.066 21.2666L114.865 22.2461C115.298 22.3352 115.71 22.3862 116.092 22.3862V21.3862ZM115.066 21.2666L115.274 20.2884C114.967 20.2232 114.702 20.1332 114.475 20.0238L114.041 20.9248L113.607 21.8258C113.995 22.0126 114.414 22.1505 114.859 22.2448L115.066 21.2666ZM114.041 20.9248L114.488 20.0304C114.198 19.8854 114.054 19.7607 113.99 19.6832C113.96 19.6477 113.951 19.627 113.949 19.6217C113.948 19.6177 113.947 19.6155 113.947 19.6089H112.947H111.947C111.947 20.6941 112.743 21.3941 113.594 21.8192L114.041 20.9248ZM112.947 19.6089H113.947C113.947 19.5867 113.954 19.4529 114.199 19.1939C114.447 18.9323 114.869 18.6187 115.522 18.2684L115.049 17.3872L114.576 16.506C113.828 16.9076 113.2 17.3404 112.746 17.8193C112.291 18.3008 111.947 18.9019 111.947 19.6089H112.947ZM115.049 17.3872L115.524 18.2673L119.198 16.2849L118.724 15.4048L118.249 14.5247L114.574 16.5071L115.049 17.3872ZM118.724 15.4048L119.195 16.2869C120.293 15.7002 121.196 15.1867 121.895 14.7481C122.576 14.3215 123.127 13.9274 123.472 13.5748L122.757 12.8755L122.042 12.1762C121.874 12.3477 121.497 12.6372 120.833 13.0537C120.188 13.4581 119.33 13.9473 118.253 14.5227L118.724 15.4048ZM122.757 12.8755L123.472 13.5748C123.76 13.2805 124.009 12.9804 124.191 12.6765C124.369 12.3806 124.526 12.0099 124.526 11.5938H123.526H122.526C122.526 11.5081 122.555 11.5161 122.476 11.6475C122.402 11.7708 122.267 11.9464 122.042 12.1762L122.757 12.8755ZM123.526 11.5938H124.526C124.526 11.1146 124.429 10.6518 124.222 10.2211L123.321 10.6538L122.419 11.0865C122.486 11.2255 122.526 11.3893 122.526 11.5938H123.526ZM123.321 10.6538L124.236 10.2511C124.059 9.84872 123.81 9.49002 123.498 9.17766L122.791 9.88477L122.084 10.5919C122.227 10.7352 122.332 10.8892 122.405 11.0565L123.321 10.6538ZM122.791 9.88477L123.498 9.17766C122.869 8.54808 122.103 8.1499 121.219 8.1499V9.1499V10.1499C121.451 10.1499 121.734 10.2416 122.084 10.5919L122.791 9.88477ZM121.219 9.1499V8.1499C120.008 8.1499 118.568 8.24463 116.904 8.42946L117.015 9.42334L117.125 10.4172C118.743 10.2375 120.105 10.1499 121.219 10.1499V9.1499ZM117.015 9.42334L116.145 8.92982L114.06 12.6041L114.93 13.0977L115.799 13.5912L117.884 9.91686L117.015 9.42334ZM114.93 13.0977L114.054 12.6153C111.361 17.5064 109.509 21.9415 108.524 25.9138L109.495 26.1543L110.466 26.3948C111.396 22.6424 113.167 18.3731 115.806 13.58L114.93 13.0977ZM109.495 26.1543L108.527 25.9049C108.409 26.362 108.145 26.7024 107.65 26.9567C107.115 27.2311 106.293 27.4102 105.103 27.4102V28.4102V29.4102C106.454 29.4102 107.634 29.2132 108.563 28.7357C109.532 28.2381 110.194 27.4505 110.464 26.4037L109.495 26.1543ZM105.103 28.4102V27.4102C103.067 27.4102 102.237 26.9194 101.947 26.4304L101.087 26.9404L100.227 27.4505C101.099 28.9211 102.946 29.4102 105.103 29.4102V28.4102ZM157.774 20.207L158.487 20.908L158.507 20.888L158.525 20.867L157.774 20.207ZM156.8 21.1982L157.507 21.9054L157.513 21.8992L156.8 21.1982ZM148.46 27.0942L148.81 28.0311L148.812 28.0304L148.46 27.0942ZM144.974 27.0088L144.281 27.73L144.29 27.7391L144.974 27.0088ZM143.589 24.3086L144.553 24.0432L144.553 24.0427L143.589 24.3086ZM143.179 22.8218L144.143 22.5558L143.789 21.2726L142.655 21.97L143.179 22.8218ZM139.539 25.0605L140.034 25.9297L140.048 25.9212L140.063 25.9123L139.539 25.0605ZM137.437 26.2568L137.916 27.1347L137.924 27.1304L137.932 27.1259L137.437 26.2568ZM127.781 26.4448L128.539 25.7917L128.534 25.7868L127.781 26.4448ZM128.072 18.2759L127.372 17.5618L127.371 17.5621L128.072 18.2759ZM136.326 13.5762L135.975 12.6398L135.972 12.641L136.326 13.5762ZM145.76 13.7983L144.968 13.1869L145.76 13.7983ZM144.563 14.5674L144.957 15.4865L144.962 15.4847L144.563 14.5674ZM142.41 15.4902L142.796 16.413L142.804 16.4094L142.41 15.4902ZM135.403 19.6431L136.091 20.3696L136.099 20.3611L135.403 19.6431ZM139.812 19.4551L140.32 20.3165L140.321 20.3162L139.812 19.4551ZM141.231 18.6177L141.739 19.4788L141.746 19.4748L141.231 18.6177ZM149.246 18.293L150.191 17.9659L150.187 17.9554L150.184 17.945L149.246 18.293ZM149.537 19.1987L148.578 19.4828L148.581 19.4928L149.537 19.1987ZM149.81 20.002L150.749 19.6571L150.745 19.646L149.81 20.002ZM151.075 20.6001L151.535 21.4879L151.548 21.4812L151.56 21.4743L151.075 20.6001ZM152.083 19.9678L152.65 20.7918L152.655 20.7882L152.083 19.9678ZM153.245 19.1133L153.856 19.9051L153.863 19.8994L153.871 19.8935L153.245 19.1133ZM155.313 17.4556L155.938 18.2358L155.946 18.2301L155.953 18.2242L155.313 17.4556ZM159.449 15.1655V16.1655C159.396 16.1655 159.302 16.1533 159.198 16.0948C159.093 16.0357 159.03 15.9587 158.999 15.906C158.971 15.8599 158.973 15.8414 158.98 15.8784C158.987 15.9139 158.996 15.981 158.996 16.0884H159.996H160.996C160.996 15.7147 160.946 15.2693 160.719 14.8864C160.444 14.4215 159.976 14.1655 159.449 14.1655V15.1655ZM159.996 16.0884H158.996C158.996 16.3925 158.886 16.8335 158.56 17.438C158.237 18.0361 157.733 18.7382 157.023 19.5471L157.774 20.207L158.525 20.867C159.296 19.9896 159.902 19.1623 160.32 18.3875C160.735 17.619 160.996 16.8438 160.996 16.0884H159.996ZM157.774 20.207L157.061 19.5061L156.087 20.4973L156.8 21.1982L157.513 21.8992L158.487 20.908L157.774 20.207ZM156.8 21.1982L156.093 20.4911C153.197 23.3868 150.534 25.247 148.108 26.1581L148.46 27.0942L148.812 28.0304C151.604 26.9819 154.501 24.9114 157.507 21.9053L156.8 21.1982ZM148.46 27.0942L148.11 26.1574C146.56 26.7361 145.916 26.5215 145.657 26.2785L144.974 27.0088L144.29 27.7391C145.444 28.8177 147.124 28.6601 148.81 28.0311L148.46 27.0942ZM144.974 27.0088L145.666 26.2877C145.271 25.9077 144.873 25.2055 144.553 24.0432L143.589 24.3086L142.625 24.574C142.989 25.8954 143.514 26.9933 144.281 27.7299L144.974 27.0088ZM143.589 24.3086L144.553 24.0427L144.143 22.5558L143.179 22.8218L142.215 23.0877L142.625 24.5745L143.589 24.3086ZM143.179 22.8218L142.655 21.97L139.015 24.2088L139.539 25.0605L140.063 25.9123L143.703 23.6736L143.179 22.8218ZM139.539 25.0605L139.044 24.1914L136.942 25.3877L137.437 26.2568L137.932 27.1259L140.034 25.9297L139.539 25.0605ZM137.437 26.2568L136.958 25.3789C134.456 26.7439 132.774 27.3076 131.797 27.3076V28.3076V29.3076C133.328 29.3076 135.405 28.5042 137.916 27.1347L137.437 26.2568ZM131.797 28.3076V27.3076C130.489 27.3076 129.424 26.8186 128.539 25.7917L127.781 26.4448L127.024 27.0979C128.28 28.5548 129.893 29.3076 131.797 29.3076V28.3076ZM127.781 26.4448L128.534 25.7868C127.667 24.7944 127.243 23.6663 127.243 22.3604H126.243H125.243C125.243 24.1533 125.845 25.7482 127.028 27.1028L127.781 26.4448ZM126.243 22.3604H127.243C127.243 21.1352 127.72 20.0224 128.772 18.9896L128.072 18.2759L127.371 17.5621C125.986 18.922 125.243 20.5321 125.243 22.3604H126.243ZM128.072 18.2759L128.772 18.99C130.373 17.4206 132.977 15.9142 136.68 14.5113L136.326 13.5762L135.972 12.641C132.156 14.0864 129.257 15.7131 127.372 17.5618L128.072 18.2759ZM136.326 13.5762L136.677 14.5125C140.19 13.1953 142.929 12.5767 144.939 12.5767V11.5767V10.5767C142.575 10.5767 139.572 11.291 135.975 12.6398L136.326 13.5762ZM144.939 11.5767V12.5767C145.046 12.5767 145.098 12.5901 145.114 12.5952C145.124 12.5987 145.101 12.5926 145.071 12.5627C145.04 12.5325 145.032 12.5072 145.034 12.5126C145.037 12.5229 145.05 12.5698 145.05 12.6704H146.05H147.05C147.05 12.1477 146.916 11.5729 146.474 11.1375C146.035 10.705 145.46 10.5767 144.939 10.5767V11.5767ZM146.05 12.6704H145.05C145.05 13.0708 144.968 13.1873 144.968 13.1869L145.76 13.7983L146.551 14.4098C146.939 13.9081 147.05 13.2727 147.05 12.6704H146.05ZM145.76 13.7983L144.968 13.1869C144.97 13.1847 144.959 13.199 144.926 13.2276C144.893 13.2559 144.844 13.2929 144.775 13.3374C144.634 13.4276 144.435 13.5329 144.165 13.65L144.563 14.5674L144.962 15.4847C145.587 15.2133 146.192 14.8746 146.551 14.4098L145.76 13.7983ZM144.563 14.5674L144.17 13.6482L142.016 14.5711L142.41 15.4902L142.804 16.4094L144.957 15.4865L144.563 14.5674ZM142.41 15.4902L142.025 14.5675C138.786 15.9206 136.319 17.363 134.707 18.925L135.403 19.6431L136.099 20.3611C137.45 19.052 139.654 17.7259 142.796 16.4129L142.41 15.4902ZM135.403 19.6431L134.716 18.9166C134.202 19.4031 133.771 20.0355 133.771 20.8052H134.771H135.771C135.771 20.8051 135.771 20.8039 135.771 20.8014C135.772 20.7989 135.773 20.7942 135.774 20.7872C135.778 20.7732 135.787 20.7478 135.807 20.7106C135.85 20.6332 135.933 20.5181 136.091 20.3695L135.403 19.6431ZM134.771 20.8052H133.771C133.771 21.3147 134.005 21.7882 134.469 22.077C134.854 22.3169 135.303 22.3691 135.677 22.3691V21.3691V20.3691C135.575 20.3691 135.513 20.3609 135.484 20.3548C135.453 20.3484 135.477 20.3485 135.526 20.3793C135.582 20.4142 135.655 20.4793 135.709 20.5799C135.762 20.6781 135.771 20.7634 135.771 20.8052H134.771ZM135.677 21.3691V22.3691C135.98 22.3691 136.293 22.2926 136.576 22.2009C136.874 22.1045 137.209 21.9675 137.575 21.7981C138.307 21.4592 139.225 20.962 140.32 20.3165L139.812 19.4551L139.305 18.5936C138.235 19.2242 137.381 19.684 136.735 19.9831C136.412 20.1327 136.156 20.235 135.961 20.2981C135.751 20.3659 135.67 20.3691 135.677 20.3691V21.3691ZM139.812 19.4551L140.321 20.3162L141.739 19.4788L141.231 18.6177L140.723 17.7565L139.304 18.5939L139.812 19.4551ZM141.231 18.6177L141.746 19.4748C143.889 18.1868 145.54 17.6353 146.751 17.6353V16.6353V15.6353C145 15.6353 142.971 16.4054 140.716 17.7606L141.231 18.6177ZM146.751 16.6353V17.6353C147.231 17.6353 147.547 17.7401 147.761 17.8826C147.971 18.0219 148.163 18.2497 148.309 18.6409L149.246 18.293L150.184 17.945C149.919 17.2311 149.49 16.6301 148.868 16.2168C148.251 15.8067 147.524 15.6353 146.751 15.6353V16.6353ZM149.246 18.293L148.301 18.6201C148.399 18.9017 148.491 19.1893 148.578 19.4828L149.537 19.1987L150.495 18.9146C150.4 18.5929 150.299 18.2766 150.191 17.9659L149.246 18.293ZM149.537 19.1987L148.581 19.4928C148.677 19.8057 148.775 20.0946 148.876 20.3579L149.81 20.002L150.745 19.646C150.663 19.4308 150.578 19.1842 150.492 18.9046L149.537 19.1987ZM149.81 20.002L148.871 20.3468C148.983 20.6508 149.111 20.943 149.263 21.1768C149.339 21.2933 149.449 21.4375 149.6 21.5616C149.754 21.6869 150.012 21.8394 150.357 21.8394V20.8394V19.8394C150.622 19.8394 150.798 19.9569 150.866 20.0125C150.932 20.0667 150.953 20.1062 150.938 20.0832C150.927 20.066 150.902 20.0245 150.867 19.9485C150.833 19.8742 150.793 19.7781 150.749 19.6571L149.81 20.002ZM150.357 20.8394V21.8394C150.782 21.8394 151.203 21.6602 151.535 21.4879L151.075 20.6001L150.614 19.7123C150.491 19.7763 150.404 19.8123 150.348 19.8309C150.287 19.8513 150.297 19.8394 150.357 19.8394V20.8394ZM151.075 20.6001L151.56 21.4743C151.902 21.2846 152.265 21.0561 152.65 20.7918L152.083 19.9678L151.516 19.1437C151.172 19.3807 150.863 19.5738 150.589 19.7259L151.075 20.6001ZM152.083 19.9678L152.655 20.7882C153.045 20.5161 153.446 20.2216 153.856 19.9051L153.245 19.1133L152.634 18.3215C152.247 18.6202 151.873 18.8954 151.511 19.1474L152.083 19.9678ZM153.245 19.1133L153.871 19.8935L155.938 18.2358L155.313 17.4556L154.688 16.6753L152.62 18.333L153.245 19.1133ZM155.313 17.4556L155.953 18.2242C156.843 17.4828 157.593 16.9528 158.207 16.6129C158.84 16.2625 159.237 16.1655 159.449 16.1655V15.1655V14.1655C158.737 14.1655 157.984 14.4502 157.238 14.8632C156.474 15.2866 155.617 15.9017 154.673 16.687L155.313 17.4556ZM170.25 16.2422L169.539 15.5387L169.53 15.548L170.25 16.2422ZM171.907 14.5674L171.207 13.8531L171.202 13.8585L171.197 13.8639L171.907 14.5674ZM175.872 13.5762L176.54 12.8319L176.539 12.8309L175.872 13.5762ZM176.385 16.3447L175.402 16.1604L175.4 16.1687L175.399 16.1769L176.385 16.3447ZM175.94 18.1562L174.984 17.8644L174.983 17.8689L175.94 18.1562ZM173.907 23.1978L174.813 23.6201L174.814 23.6193L173.907 23.1978ZM173.206 24.7017L172.3 24.2793L173.877 25.4428L173.206 24.7017ZM176.111 22.0698L175.461 21.3103L175.45 21.3193L175.44 21.3287L176.111 22.0698ZM182.059 16.9771L181.456 16.1789L181.432 16.1974L181.408 16.2175L182.059 16.9771ZM183.187 20.8394L182.417 20.2004L182.41 20.2096L183.187 20.8394ZM182.076 22.0186L182.731 22.7735L182.741 22.7652L182.75 22.7566L182.076 22.0186ZM178.042 25.522L178.688 26.2856L178.698 26.2769L178.042 25.522ZM170.181 32.1699L169.535 31.4063L169.525 31.415L170.181 32.1699ZM168.609 33.6055L167.902 32.8984L167.819 32.981L167.758 33.0806L168.609 33.6055ZM167.618 35.1265L166.808 34.54L166.796 34.5556L166.786 34.5718L167.618 35.1265ZM166.934 36.2031L166.079 35.6848L166.072 35.6961L166.934 36.2031ZM166.268 37.1943L165.484 36.5736L165.482 36.5752L166.268 37.1943ZM163.448 37.4849L162.788 38.2362L162.789 38.2374L163.448 37.4849ZM162.662 33.4688L161.739 33.0832L161.737 33.088L162.662 33.4688ZM163.909 30.8369L163.03 30.3603L163.025 30.3688L163.021 30.3775L163.909 30.8369ZM167.532 24.1548L168.411 24.6314L166.862 23.4122L167.532 24.1548ZM163.431 27.2822L163.882 28.1746L163.89 28.1704L163.431 27.2822ZM160.918 28.2734L160.691 27.2996L160.682 27.3018L160.672 27.3043L160.918 28.2734ZM156.783 28.0513L157.271 27.1788L157.265 27.175L157.258 27.1714L156.783 28.0513ZM155.364 26.8037L154.546 27.379L154.552 27.3866L155.364 26.8037ZM155.604 17.5239L156.492 17.9829L156.496 17.976L155.604 17.5239ZM158.987 13.4565L159.578 14.2636L159.581 14.261L158.987 13.4565ZM163.943 17.0454L164.698 17.7019L164.7 17.699L163.943 17.0454ZM161.995 20.7368H160.995C160.995 21.2408 161.177 21.7654 161.654 22.1248C162.077 22.4442 162.593 22.5229 163.038 22.5229V21.5229V20.5229C162.923 20.5229 162.857 20.5119 162.825 20.504C162.795 20.4964 162.816 20.4965 162.858 20.528C162.905 20.5637 162.949 20.6168 162.975 20.6765C162.999 20.7303 162.995 20.7585 162.995 20.7368H161.995ZM163.038 21.5229V22.5229C164.09 22.5229 165.272 21.9022 166.491 21.0096C167.759 20.0812 169.254 18.7152 170.969 16.9364L170.25 16.2422L169.53 15.548C167.85 17.2896 166.445 18.5641 165.309 19.3959C164.124 20.2636 163.398 20.5229 163.038 20.5229V21.5229ZM170.25 16.2422L170.96 16.9457L172.618 15.2709L171.907 14.5674L171.197 13.8639L169.539 15.5387L170.25 16.2422ZM171.907 14.5674L172.607 15.2817C173.158 14.7423 173.588 14.3643 173.908 14.1278C174.068 14.0092 174.179 13.9422 174.246 13.9086C174.331 13.8664 174.282 13.9097 174.146 13.9097V12.9097V11.9097C173.828 11.9097 173.548 12.022 173.356 12.1179C173.145 12.2225 172.931 12.3628 172.718 12.5204C172.291 12.8365 171.785 13.2873 171.207 13.8531L171.907 14.5674ZM174.146 12.9097V13.9097C174.395 13.9097 174.579 13.9522 174.717 14.013L175.12 13.0977L175.523 12.1823C175.091 11.9924 174.626 11.9097 174.146 11.9097V12.9097ZM175.12 13.0977L174.717 14.013C174.913 14.0989 175.073 14.2028 175.205 14.3214L175.872 13.5762L176.539 12.8309C176.238 12.5622 175.897 12.3471 175.523 12.1823L175.12 13.0977ZM175.872 13.5762L175.204 14.3204C175.506 14.5917 175.539 14.7676 175.539 14.8579H176.539H177.539C177.539 14.0368 177.126 13.3582 176.54 12.8319L175.872 13.5762ZM176.539 14.8579H175.539C175.539 15.2273 175.496 15.6599 175.402 16.1604L176.385 16.3447L177.368 16.529C177.479 15.9358 177.539 15.3772 177.539 14.8579H176.539ZM176.385 16.3447L175.399 16.1769C175.317 16.6604 175.18 17.2218 174.984 17.8644L175.94 18.1562L176.897 18.4481C177.111 17.7463 177.271 17.1 177.371 16.5125L176.385 16.3447ZM175.94 18.1562L174.983 17.8689C174.627 19.0541 173.972 20.6841 173 22.7762L173.907 23.1978L174.814 23.6193C175.801 21.4959 176.502 19.7649 176.898 18.4436L175.94 18.1562ZM173.907 23.1978L173 22.7754L172.3 24.2793L173.206 24.7017L174.113 25.124L174.813 23.6201L173.907 23.1978ZM173.206 24.7017L173.877 25.4428L176.783 22.8109L176.111 22.0698L175.44 21.3287L172.535 23.9605L173.206 24.7017ZM176.111 22.0698L176.762 22.8294L182.709 17.7366L182.059 16.9771L181.408 16.2175L175.461 21.3103L176.111 22.0698ZM182.059 16.9771L182.661 17.7752C183.225 17.3496 183.504 17.2935 183.562 17.2935V16.2935V15.2935C182.824 15.2935 182.1 15.6931 181.456 16.1789L182.059 16.9771ZM183.562 16.2935V17.2935C183.851 17.2935 183.882 17.3634 183.844 17.3265C183.798 17.2825 183.861 17.2898 183.861 17.541H184.861H185.861C185.861 16.9605 185.708 16.344 185.229 15.8841C184.758 15.4315 184.14 15.2935 183.562 15.2935V16.2935ZM184.861 17.541H183.861C183.861 18.0176 183.515 18.8785 182.417 20.2005L183.187 20.8394L183.956 21.4783C185.091 20.1114 185.861 18.7734 185.861 17.541H184.861ZM183.187 20.8394L182.41 20.2096C182.099 20.5927 181.763 20.9496 181.401 21.2805L182.076 22.0186L182.75 22.7566C183.186 22.3584 183.59 21.9291 183.963 21.4692L183.187 20.8394ZM182.076 22.0186L181.42 21.2636L177.387 24.767L178.042 25.522L178.698 26.2769L182.731 22.7735L182.076 22.0186ZM178.042 25.522L177.397 24.7584L169.535 31.4063L170.181 32.1699L170.827 32.9335L178.688 26.2855L178.042 25.522ZM170.181 32.1699L169.525 31.415C168.825 32.0238 168.28 32.5203 167.902 32.8984L168.609 33.6055L169.316 34.3126C169.644 33.9843 170.148 33.5238 170.837 32.9248L170.181 32.1699ZM168.609 33.6055L167.758 33.0806C167.339 33.7591 167.025 34.2405 166.808 34.54L167.618 35.1265L168.428 35.713C168.689 35.3516 169.035 34.819 169.46 34.1304L168.609 33.6055ZM167.618 35.1265L166.786 34.5718C166.549 34.9263 166.314 35.2974 166.079 35.6848L166.934 36.2031L167.789 36.7214C168.01 36.3569 168.23 36.0102 168.45 35.6812L167.618 35.1265ZM166.934 36.2031L166.072 35.6961C165.861 36.0545 165.665 36.3448 165.484 36.5736L166.268 37.1943L167.052 37.815C167.303 37.497 167.551 37.1265 167.796 36.7101L166.934 36.2031ZM166.268 37.1943L165.482 36.5752C165.089 37.0745 164.879 37.083 164.866 37.083V38.083V39.083C165.788 39.083 166.512 38.4991 167.053 37.8135L166.268 37.1943ZM164.866 38.083V37.083C164.672 37.083 164.424 37.0107 164.106 36.7323L163.448 37.4849L162.789 38.2374C163.383 38.7566 164.081 39.083 164.866 39.083V38.083ZM163.448 37.4849L164.108 36.7335C163.3 36.0237 163.183 35.6204 163.183 35.5024H162.183H161.183C161.183 36.5466 161.91 37.465 162.788 38.2362L163.448 37.4849ZM162.183 35.5024H163.183C163.183 35.0962 163.297 34.5525 163.586 33.8495L162.662 33.4688L161.737 33.088C161.388 33.9345 161.183 34.7465 161.183 35.5024H162.183ZM162.662 33.4688L163.584 33.8543C163.89 33.123 164.293 32.2711 164.797 31.2963L163.909 30.8369L163.021 30.3775C162.5 31.3851 162.071 32.2878 161.739 33.0832L162.662 33.4688ZM163.909 30.8369L164.788 31.3136L168.411 24.6314L167.532 24.1548L166.653 23.6781L163.03 30.3603L163.909 30.8369ZM167.532 24.1548L166.862 23.4122C165.129 24.9757 163.841 25.9439 162.971 26.394L163.431 27.2822L163.89 28.1704C165.002 27.5951 166.449 26.4784 168.202 24.8974L167.532 24.1548ZM163.431 27.2822L162.979 26.3899C162.023 26.8734 161.266 27.1655 160.691 27.2996L160.918 28.2734L161.146 29.2473C161.938 29.0623 162.856 28.6936 163.882 28.1746L163.431 27.2822ZM160.918 28.2734L160.672 27.3043C160.088 27.4528 159.454 27.5298 158.765 27.5298V28.5298V29.5298C159.603 29.5298 160.405 29.4359 161.165 29.2426L160.918 28.2734ZM158.765 28.5298V27.5298C158.158 27.5298 157.67 27.4022 157.271 27.1788L156.783 28.0513L156.294 28.9238C157.034 29.3383 157.868 29.5298 158.765 29.5298V28.5298ZM156.783 28.0513L157.258 27.1714C156.821 26.9356 156.464 26.6211 156.177 26.2208L155.364 26.8037L154.552 27.3866C155.017 28.0345 155.605 28.5517 156.308 28.9312L156.783 28.0513ZM155.364 26.8037L156.182 26.2284C155.604 25.4056 155.271 24.2747 155.271 22.7534H154.271H153.271C153.271 24.559 153.667 26.1282 154.546 27.379L155.364 26.8037ZM154.271 22.7534H155.271C155.271 21.1622 155.669 19.5753 156.492 17.9829L155.604 17.5239L154.715 17.065C153.76 18.9133 153.271 20.8128 153.271 22.7534H154.271ZM155.604 17.5239L156.496 17.976C157.285 16.4175 158.314 15.188 159.578 14.2636L158.987 13.4565L158.397 12.6495C156.857 13.7759 155.631 15.258 154.712 17.0719L155.604 17.5239ZM158.987 13.4565L159.581 14.261C160.922 13.2707 162.24 12.8159 163.55 12.8159V11.8159V10.8159C161.739 10.8159 160.015 11.4549 158.393 12.6521L158.987 13.4565ZM163.55 11.8159V12.8159C164.228 12.8159 164.552 12.9529 164.691 13.0612C164.782 13.1327 164.892 13.2641 164.892 13.6445H165.892H166.892C166.892 12.8058 166.611 12.0229 165.922 11.485C165.28 10.9837 164.433 10.8159 163.55 10.8159V11.8159ZM165.892 13.6445H164.892C164.892 13.7683 164.829 14.0604 164.537 14.5702C164.256 15.0606 163.813 15.6661 163.187 16.3918L163.943 17.0454L164.7 17.699C165.372 16.9208 165.904 16.2075 166.272 15.5643C166.63 14.9405 166.892 14.2841 166.892 13.6445H165.892ZM163.943 17.0454L163.189 16.3889C161.871 17.9035 160.995 19.3769 160.995 20.7368H161.995H162.995C162.995 20.1599 163.418 19.1723 164.698 17.7019L163.943 17.0454Z" fill="white" mask="url(#path-1-outside-1_845_763)"/>
<ellipse cx="93" cy="52.5" rx="93" ry="7.5" fill="black" fill-opacity="0.16"/>
</svg>
