<svg width="116" height="32" viewBox="0 0 116 32" fill="none" xmlns="http://www.w3.org/2000/svg">
<g filter="url(#filter0_d_646_1851)">
<mask id="path-1-outside-1_646_1851" maskUnits="userSpaceOnUse" x="4" y="0" width="108" height="24" fill="black">
<rect fill="white" x="4" width="108" height="24"/>
<path d="M8.08008 15.5898C7.67643 16.1042 7.3444 16.3874 7.08398 16.4395C6.83008 16.498 6.61849 16.5046 6.44922 16.459C6.27995 16.4134 6.13021 16.3385 6 16.2344C5.72656 16 5.58984 15.6875 5.58984 15.2969C5.58984 15.0104 5.67773 14.724 5.85352 14.4375C9.64909 8.40234 11.7129 5.13411 12.0449 4.63281C12.8262 3.47396 13.2786 2.82292 13.4023 2.67969L13.6465 2.38672C14.3757 1.54688 15.3229 1.12695 16.4883 1.12695C17.3932 1.12695 18.0117 1.32552 18.3438 1.72266C18.4219 1.80729 18.4609 1.97005 18.4609 2.21094C18.4674 2.45182 18.4805 2.83594 18.5 3.36328L18.5488 5.04297C18.5684 5.63542 18.5911 6.24089 18.6172 6.85938L18.6758 8.67578C18.7279 9.84766 18.7734 10.8568 18.8125 11.7031C19.0664 11.2539 19.3236 10.7298 19.584 10.1309L20.4141 8.23633C21.1693 6.54362 21.8984 5.20573 22.6016 4.22266C23.0443 3.59115 23.7734 3.27539 24.7891 3.27539C25.5378 3.27539 26.2083 3.43815 26.8008 3.76367C27.1589 3.95898 27.3346 4.13151 27.3281 4.28125C27.3281 4.41797 27.2793 4.54818 27.1816 4.67188L26.9766 4.95508C26.5143 5.59961 26.0586 6.27018 25.6094 6.9668L24.3008 9.04688C22.4648 12.0807 21.4004 13.8223 21.1074 14.2715C20.8145 14.7207 20.5898 15.0365 20.4336 15.2188C20.2839 15.3945 20.0853 15.5443 19.8379 15.668C19.597 15.7917 19.3203 15.9023 19.0078 16C18.3307 16.2148 17.7676 16.3223 17.3184 16.3223C16.5632 16.3223 16.0521 16.2148 15.7852 16C15.4987 15.7396 15.0951 14.2292 14.5742 11.4688L14.2422 9.63281C14.138 9.00781 14.0436 8.38607 13.959 7.76758C13.7441 8.09961 13.4674 8.49349 13.1289 8.94922L10.2578 12.7773L8.08008 15.5898ZM29.5449 14.9844C29.1738 14.9844 28.819 14.903 28.4805 14.7402C28.1419 14.571 27.8522 14.3464 27.6113 14.0664C26.8496 13.194 26.7129 12.1003 27.2012 10.7852C27.6764 9.52865 28.5521 8.02474 29.8281 6.27344C30.4857 5.375 31.0716 4.64909 31.5859 4.0957C32.4388 3.17773 32.9661 2.71875 33.168 2.71875C33.3763 2.71875 33.6042 2.78385 33.8516 2.91406C34.1055 3.04427 34.3431 3.20703 34.5645 3.40234C35.0723 3.87109 35.3132 4.32031 35.2871 4.75C35.2676 5.09505 34.9453 5.67773 34.3203 6.49805L33.4609 7.60156C31.599 9.91927 31.1725 11.0781 32.1816 11.0781C32.403 11.0781 32.6309 11.0228 32.8652 10.9121C35.4173 9.74674 37.7904 8.0638 39.9844 5.86328L41.4395 4.35938C41.8561 3.92318 42.2012 3.57487 42.4746 3.31445C42.7546 3.04753 42.9759 2.91406 43.1387 2.91406C43.3014 2.91406 43.474 2.9694 43.6562 3.08008C43.8385 3.19076 43.998 3.32422 44.1348 3.48047C44.4408 3.81901 44.5872 4.11849 44.5742 4.37891C44.457 5.99349 43.4251 8.72786 41.4785 12.582C41.0749 13.3893 40.6517 14.1901 40.209 14.9844C39.0436 17.0026 38.2233 18.3698 37.748 19.0859C37.2728 19.8086 36.8626 20.3945 36.5176 20.8438C35.7754 21.8008 35.2611 22.2793 34.9746 22.2793C34.6556 22.2793 34.1152 21.9635 33.3535 21.332C32.5462 20.6745 32.1426 20.1471 32.1426 19.75C32.1426 19.6263 32.377 19.265 32.8457 18.666L35.3848 15.4727C36.6803 13.806 37.5625 12.6406 38.0312 11.9766C39.0534 10.5182 39.8053 9.29427 40.2871 8.30469C38.64 9.67188 37.5137 10.5866 36.9082 11.0488L35.2285 12.2891C32.6829 14.0859 30.7884 14.9844 29.5449 14.9844Z"/>
<path d="M48.4707 13.0703C48.2428 13.0703 48.1289 12.9368 48.1289 12.6699C48.1289 12.416 48.2005 12.1589 48.3438 11.8984C48.4935 11.638 48.6335 11.4557 48.7637 11.3516C48.8939 11.2409 49.0339 11.1432 49.1836 11.0586C49.5091 10.8893 49.7956 10.8047 50.043 10.8047H55.6973C55.8014 10.8047 55.8991 10.8438 55.9902 10.9219C56.0814 10.9935 56.127 11.0944 56.127 11.2246C56.127 11.485 56.0391 11.7617 55.8633 12.0547C55.694 12.3411 55.4889 12.5853 55.248 12.7871C55.0137 12.9824 54.7728 13.0801 54.5254 13.0801L48.4707 13.0703ZM62.6211 15.3945C62.5104 15.2057 62.4681 15.0234 62.4941 14.8477C62.5267 14.6654 62.6146 14.431 62.7578 14.1445C62.901 13.8516 63.0964 13.487 63.3438 13.0508L64.2031 11.5859L65.2578 9.84766L66.4492 7.97266L67.6992 6.09766C66.1302 6.48828 64.9323 6.95378 64.1055 7.49414C63.9688 7.58529 63.8516 7.67969 63.7539 7.77734L63.4219 8.10938C63.2201 8.3112 63.0215 8.41211 62.8262 8.41211C62.6309 8.41211 62.4779 8.38932 62.3672 8.34375C62.263 8.29167 62.1784 8.22656 62.1133 8.14844C61.9505 7.95964 61.9212 7.7513 62.0254 7.52344C62.3053 6.625 62.7057 5.70703 63.2266 4.76953C63.513 4.2487 63.7409 3.94922 63.9102 3.87109C65.1471 3.33724 67.7253 2.94987 71.6445 2.70898C72.9206 2.63086 74.2617 2.5918 75.668 2.5918C76.5859 2.5918 77.4583 2.92057 78.2852 3.57812C79.2096 4.32682 79.6719 5.26432 79.6719 6.39062C79.6719 7.86198 78.4089 9.25521 75.8828 10.5703C74.4831 11.306 73.168 11.8203 71.9375 12.1133C71.6185 12.1849 71.3711 12.2207 71.1953 12.2207C71.026 12.2207 70.8307 12.1979 70.6094 12.1523C70.3945 12.1068 70.1992 12.0417 70.0234 11.957C69.6068 11.7487 69.3984 11.498 69.3984 11.2051C69.3984 10.7884 69.7988 10.3652 70.5996 9.93555L72.6992 8.80273C73.9427 8.13867 74.7109 7.6569 75.0039 7.35742C75.2969 7.05794 75.4434 6.8138 75.4434 6.625C75.4434 6.42969 75.4043 6.25065 75.3262 6.08789C75.2546 5.92513 75.1536 5.77865 75.0234 5.64844C74.7435 5.36849 74.444 5.22852 74.125 5.22852C73.4609 5.22852 72.6602 5.2806 71.7227 5.38477L70.5312 7.48438C69.0078 10.2513 67.9727 12.7383 67.4258 14.9453C67.2044 15.8047 66.3678 16.2344 64.916 16.2344C63.7181 16.2344 62.9531 15.9544 62.6211 15.3945ZM95.9707 8.66602C96.179 8.66602 96.2832 8.8418 96.2832 9.19336C96.2832 9.79883 95.86 10.5833 95.0137 11.5469L94.457 12.1133C92.7708 13.7995 91.1823 14.9225 89.6914 15.4824C88.7669 15.8275 88.1029 15.8112 87.6992 15.4336C87.3672 15.1146 87.1035 14.6003 86.9082 13.8906L86.6738 13.041L84.5938 14.3203L83.3926 15.0039C81.9603 15.7852 80.8861 16.1758 80.1699 16.1758C79.252 16.1758 78.487 15.821 77.875 15.1113C77.2891 14.4408 76.9961 13.6628 76.9961 12.7773C76.9961 11.9049 77.3444 11.127 78.041 10.4434C79.0371 9.4668 80.6094 8.57161 82.7578 7.75781C84.7891 6.99609 86.4297 6.61523 87.6797 6.61523C88.1029 6.61523 88.3145 6.82357 88.3145 7.24023C88.3145 7.52669 88.2591 7.74154 88.1484 7.88477C88.0378 8.02799 87.8099 8.17448 87.4648 8.32422L86.2344 8.85156C84.4115 9.61328 83.0768 10.4043 82.2305 11.2246C81.9896 11.4525 81.8691 11.6738 81.8691 11.8887C81.8691 12.1035 82.0417 12.2109 82.3867 12.2109C82.7253 12.2109 83.513 11.8464 84.75 11.1172L85.5605 10.6387C86.8171 9.88346 87.8685 9.50586 88.7148 9.50586C89.431 9.50586 89.9062 9.82161 90.1406 10.4531C90.1992 10.6224 90.2546 10.7949 90.3066 10.9707C90.3587 11.14 90.4108 11.293 90.4629 11.4297C90.5801 11.7487 90.6842 11.9082 90.7754 11.9082C90.873 11.9082 91.0098 11.8626 91.1855 11.7715C91.3613 11.6738 91.5534 11.5534 91.7617 11.4102C91.9766 11.2604 92.1979 11.0977 92.4258 10.9219L93.6074 9.97461C94.6556 9.10221 95.4434 8.66602 95.9707 8.66602ZM97.4258 11.8496C97.4258 12.1491 97.6243 12.2988 98.0215 12.2988C98.8288 12.2988 100.202 11.293 102.143 9.28125L103.09 8.32422C103.734 7.69271 104.161 7.37695 104.369 7.37695C104.577 7.37695 104.763 7.41276 104.926 7.48438C105.089 7.55599 105.232 7.64714 105.355 7.75781C105.609 7.98568 105.736 8.22982 105.736 8.49023C105.736 8.74414 105.707 9.02734 105.648 9.33984C105.596 9.64583 105.512 9.99089 105.395 10.375C105.18 11.0911 104.792 12.0514 104.232 13.2559L103.832 14.1152L105.492 12.6113L108.891 9.70117C109.236 9.44076 109.522 9.31055 109.75 9.31055C110.245 9.31055 110.492 9.54818 110.492 10.0234C110.492 10.5117 110.173 11.14 109.535 11.9082C109.34 12.1491 109.128 12.3737 108.9 12.582L106.596 14.584L102.104 18.3828C101.706 18.7279 101.407 19.0013 101.205 19.2031C100.964 19.5938 100.775 19.8835 100.639 20.0723C100.508 20.2676 100.378 20.4727 100.248 20.6875C100.118 20.9089 99.9909 21.0977 99.8672 21.2539C99.6003 21.5924 99.3333 21.7617 99.0664 21.7617C98.7865 21.7617 98.5163 21.6478 98.2559 21.4199C97.7741 20.9967 97.5332 20.6191 97.5332 20.2871C97.5332 19.9551 97.6243 19.5677 97.8066 19.125C97.9889 18.6888 98.2266 18.1875 98.5195 17.6211L100.59 13.8027C99.5938 14.7012 98.8125 15.2969 98.2461 15.5898C97.6797 15.8763 97.2012 16.0651 96.8105 16.1562C96.4264 16.2539 96.0163 16.3027 95.5801 16.3027C95.1504 16.3027 94.7728 16.2116 94.4473 16.0293C94.1217 15.8535 93.8516 15.6159 93.6367 15.3164C93.2201 14.724 93.0117 13.9525 93.0117 13.002C93.0117 11.9928 93.2656 10.9967 93.7734 10.0137C94.2617 9.05013 94.9062 8.27539 95.707 7.68945C96.5534 7.06445 97.4225 6.75195 98.3145 6.75195C99.2064 6.75195 99.6523 7.10026 99.6523 7.79688C99.6523 8.23307 99.2812 8.88086 98.5391 9.74023C97.7969 10.5931 97.4258 11.2962 97.4258 11.8496Z"/>
</mask>
<path d="M8.08008 15.5898C7.67643 16.1042 7.3444 16.3874 7.08398 16.4395C6.83008 16.498 6.61849 16.5046 6.44922 16.459C6.27995 16.4134 6.13021 16.3385 6 16.2344C5.72656 16 5.58984 15.6875 5.58984 15.2969C5.58984 15.0104 5.67773 14.724 5.85352 14.4375C9.64909 8.40234 11.7129 5.13411 12.0449 4.63281C12.8262 3.47396 13.2786 2.82292 13.4023 2.67969L13.6465 2.38672C14.3757 1.54688 15.3229 1.12695 16.4883 1.12695C17.3932 1.12695 18.0117 1.32552 18.3438 1.72266C18.4219 1.80729 18.4609 1.97005 18.4609 2.21094C18.4674 2.45182 18.4805 2.83594 18.5 3.36328L18.5488 5.04297C18.5684 5.63542 18.5911 6.24089 18.6172 6.85938L18.6758 8.67578C18.7279 9.84766 18.7734 10.8568 18.8125 11.7031C19.0664 11.2539 19.3236 10.7298 19.584 10.1309L20.4141 8.23633C21.1693 6.54362 21.8984 5.20573 22.6016 4.22266C23.0443 3.59115 23.7734 3.27539 24.7891 3.27539C25.5378 3.27539 26.2083 3.43815 26.8008 3.76367C27.1589 3.95898 27.3346 4.13151 27.3281 4.28125C27.3281 4.41797 27.2793 4.54818 27.1816 4.67188L26.9766 4.95508C26.5143 5.59961 26.0586 6.27018 25.6094 6.9668L24.3008 9.04688C22.4648 12.0807 21.4004 13.8223 21.1074 14.2715C20.8145 14.7207 20.5898 15.0365 20.4336 15.2188C20.2839 15.3945 20.0853 15.5443 19.8379 15.668C19.597 15.7917 19.3203 15.9023 19.0078 16C18.3307 16.2148 17.7676 16.3223 17.3184 16.3223C16.5632 16.3223 16.0521 16.2148 15.7852 16C15.4987 15.7396 15.0951 14.2292 14.5742 11.4688L14.2422 9.63281C14.138 9.00781 14.0436 8.38607 13.959 7.76758C13.7441 8.09961 13.4674 8.49349 13.1289 8.94922L10.2578 12.7773L8.08008 15.5898ZM29.5449 14.9844C29.1738 14.9844 28.819 14.903 28.4805 14.7402C28.1419 14.571 27.8522 14.3464 27.6113 14.0664C26.8496 13.194 26.7129 12.1003 27.2012 10.7852C27.6764 9.52865 28.5521 8.02474 29.8281 6.27344C30.4857 5.375 31.0716 4.64909 31.5859 4.0957C32.4388 3.17773 32.9661 2.71875 33.168 2.71875C33.3763 2.71875 33.6042 2.78385 33.8516 2.91406C34.1055 3.04427 34.3431 3.20703 34.5645 3.40234C35.0723 3.87109 35.3132 4.32031 35.2871 4.75C35.2676 5.09505 34.9453 5.67773 34.3203 6.49805L33.4609 7.60156C31.599 9.91927 31.1725 11.0781 32.1816 11.0781C32.403 11.0781 32.6309 11.0228 32.8652 10.9121C35.4173 9.74674 37.7904 8.0638 39.9844 5.86328L41.4395 4.35938C41.8561 3.92318 42.2012 3.57487 42.4746 3.31445C42.7546 3.04753 42.9759 2.91406 43.1387 2.91406C43.3014 2.91406 43.474 2.9694 43.6562 3.08008C43.8385 3.19076 43.998 3.32422 44.1348 3.48047C44.4408 3.81901 44.5872 4.11849 44.5742 4.37891C44.457 5.99349 43.4251 8.72786 41.4785 12.582C41.0749 13.3893 40.6517 14.1901 40.209 14.9844C39.0436 17.0026 38.2233 18.3698 37.748 19.0859C37.2728 19.8086 36.8626 20.3945 36.5176 20.8438C35.7754 21.8008 35.2611 22.2793 34.9746 22.2793C34.6556 22.2793 34.1152 21.9635 33.3535 21.332C32.5462 20.6745 32.1426 20.1471 32.1426 19.75C32.1426 19.6263 32.377 19.265 32.8457 18.666L35.3848 15.4727C36.6803 13.806 37.5625 12.6406 38.0312 11.9766C39.0534 10.5182 39.8053 9.29427 40.2871 8.30469C38.64 9.67188 37.5137 10.5866 36.9082 11.0488L35.2285 12.2891C32.6829 14.0859 30.7884 14.9844 29.5449 14.9844Z" fill="#A82DF4"/>
<path d="M48.4707 13.0703C48.2428 13.0703 48.1289 12.9368 48.1289 12.6699C48.1289 12.416 48.2005 12.1589 48.3438 11.8984C48.4935 11.638 48.6335 11.4557 48.7637 11.3516C48.8939 11.2409 49.0339 11.1432 49.1836 11.0586C49.5091 10.8893 49.7956 10.8047 50.043 10.8047H55.6973C55.8014 10.8047 55.8991 10.8438 55.9902 10.9219C56.0814 10.9935 56.127 11.0944 56.127 11.2246C56.127 11.485 56.0391 11.7617 55.8633 12.0547C55.694 12.3411 55.4889 12.5853 55.248 12.7871C55.0137 12.9824 54.7728 13.0801 54.5254 13.0801L48.4707 13.0703ZM62.6211 15.3945C62.5104 15.2057 62.4681 15.0234 62.4941 14.8477C62.5267 14.6654 62.6146 14.431 62.7578 14.1445C62.901 13.8516 63.0964 13.487 63.3438 13.0508L64.2031 11.5859L65.2578 9.84766L66.4492 7.97266L67.6992 6.09766C66.1302 6.48828 64.9323 6.95378 64.1055 7.49414C63.9688 7.58529 63.8516 7.67969 63.7539 7.77734L63.4219 8.10938C63.2201 8.3112 63.0215 8.41211 62.8262 8.41211C62.6309 8.41211 62.4779 8.38932 62.3672 8.34375C62.263 8.29167 62.1784 8.22656 62.1133 8.14844C61.9505 7.95964 61.9212 7.7513 62.0254 7.52344C62.3053 6.625 62.7057 5.70703 63.2266 4.76953C63.513 4.2487 63.7409 3.94922 63.9102 3.87109C65.1471 3.33724 67.7253 2.94987 71.6445 2.70898C72.9206 2.63086 74.2617 2.5918 75.668 2.5918C76.5859 2.5918 77.4583 2.92057 78.2852 3.57812C79.2096 4.32682 79.6719 5.26432 79.6719 6.39062C79.6719 7.86198 78.4089 9.25521 75.8828 10.5703C74.4831 11.306 73.168 11.8203 71.9375 12.1133C71.6185 12.1849 71.3711 12.2207 71.1953 12.2207C71.026 12.2207 70.8307 12.1979 70.6094 12.1523C70.3945 12.1068 70.1992 12.0417 70.0234 11.957C69.6068 11.7487 69.3984 11.498 69.3984 11.2051C69.3984 10.7884 69.7988 10.3652 70.5996 9.93555L72.6992 8.80273C73.9427 8.13867 74.7109 7.6569 75.0039 7.35742C75.2969 7.05794 75.4434 6.8138 75.4434 6.625C75.4434 6.42969 75.4043 6.25065 75.3262 6.08789C75.2546 5.92513 75.1536 5.77865 75.0234 5.64844C74.7435 5.36849 74.444 5.22852 74.125 5.22852C73.4609 5.22852 72.6602 5.2806 71.7227 5.38477L70.5312 7.48438C69.0078 10.2513 67.9727 12.7383 67.4258 14.9453C67.2044 15.8047 66.3678 16.2344 64.916 16.2344C63.7181 16.2344 62.9531 15.9544 62.6211 15.3945ZM95.9707 8.66602C96.179 8.66602 96.2832 8.8418 96.2832 9.19336C96.2832 9.79883 95.86 10.5833 95.0137 11.5469L94.457 12.1133C92.7708 13.7995 91.1823 14.9225 89.6914 15.4824C88.7669 15.8275 88.1029 15.8112 87.6992 15.4336C87.3672 15.1146 87.1035 14.6003 86.9082 13.8906L86.6738 13.041L84.5938 14.3203L83.3926 15.0039C81.9603 15.7852 80.8861 16.1758 80.1699 16.1758C79.252 16.1758 78.487 15.821 77.875 15.1113C77.2891 14.4408 76.9961 13.6628 76.9961 12.7773C76.9961 11.9049 77.3444 11.127 78.041 10.4434C79.0371 9.4668 80.6094 8.57161 82.7578 7.75781C84.7891 6.99609 86.4297 6.61523 87.6797 6.61523C88.1029 6.61523 88.3145 6.82357 88.3145 7.24023C88.3145 7.52669 88.2591 7.74154 88.1484 7.88477C88.0378 8.02799 87.8099 8.17448 87.4648 8.32422L86.2344 8.85156C84.4115 9.61328 83.0768 10.4043 82.2305 11.2246C81.9896 11.4525 81.8691 11.6738 81.8691 11.8887C81.8691 12.1035 82.0417 12.2109 82.3867 12.2109C82.7253 12.2109 83.513 11.8464 84.75 11.1172L85.5605 10.6387C86.8171 9.88346 87.8685 9.50586 88.7148 9.50586C89.431 9.50586 89.9062 9.82161 90.1406 10.4531C90.1992 10.6224 90.2546 10.7949 90.3066 10.9707C90.3587 11.14 90.4108 11.293 90.4629 11.4297C90.5801 11.7487 90.6842 11.9082 90.7754 11.9082C90.873 11.9082 91.0098 11.8626 91.1855 11.7715C91.3613 11.6738 91.5534 11.5534 91.7617 11.4102C91.9766 11.2604 92.1979 11.0977 92.4258 10.9219L93.6074 9.97461C94.6556 9.10221 95.4434 8.66602 95.9707 8.66602ZM97.4258 11.8496C97.4258 12.1491 97.6243 12.2988 98.0215 12.2988C98.8288 12.2988 100.202 11.293 102.143 9.28125L103.09 8.32422C103.734 7.69271 104.161 7.37695 104.369 7.37695C104.577 7.37695 104.763 7.41276 104.926 7.48438C105.089 7.55599 105.232 7.64714 105.355 7.75781C105.609 7.98568 105.736 8.22982 105.736 8.49023C105.736 8.74414 105.707 9.02734 105.648 9.33984C105.596 9.64583 105.512 9.99089 105.395 10.375C105.18 11.0911 104.792 12.0514 104.232 13.2559L103.832 14.1152L105.492 12.6113L108.891 9.70117C109.236 9.44076 109.522 9.31055 109.75 9.31055C110.245 9.31055 110.492 9.54818 110.492 10.0234C110.492 10.5117 110.173 11.14 109.535 11.9082C109.34 12.1491 109.128 12.3737 108.9 12.582L106.596 14.584L102.104 18.3828C101.706 18.7279 101.407 19.0013 101.205 19.2031C100.964 19.5938 100.775 19.8835 100.639 20.0723C100.508 20.2676 100.378 20.4727 100.248 20.6875C100.118 20.9089 99.9909 21.0977 99.8672 21.2539C99.6003 21.5924 99.3333 21.7617 99.0664 21.7617C98.7865 21.7617 98.5163 21.6478 98.2559 21.4199C97.7741 20.9967 97.5332 20.6191 97.5332 20.2871C97.5332 19.9551 97.6243 19.5677 97.8066 19.125C97.9889 18.6888 98.2266 18.1875 98.5195 17.6211L100.59 13.8027C99.5938 14.7012 98.8125 15.2969 98.2461 15.5898C97.6797 15.8763 97.2012 16.0651 96.8105 16.1562C96.4264 16.2539 96.0163 16.3027 95.5801 16.3027C95.1504 16.3027 94.7728 16.2116 94.4473 16.0293C94.1217 15.8535 93.8516 15.6159 93.6367 15.3164C93.2201 14.724 93.0117 13.9525 93.0117 13.002C93.0117 11.9928 93.2656 10.9967 93.7734 10.0137C94.2617 9.05013 94.9062 8.27539 95.707 7.68945C96.5534 7.06445 97.4225 6.75195 98.3145 6.75195C99.2064 6.75195 99.6523 7.10026 99.6523 7.79688C99.6523 8.23307 99.2812 8.88086 98.5391 9.74023C97.7969 10.5931 97.4258 11.2962 97.4258 11.8496Z" fill="#17191C"/>
<path d="M8.08008 15.5898L8.86676 16.2072L8.87076 16.2021L8.08008 15.5898ZM7.08398 16.4395L6.88787 15.4589L6.87345 15.4618L6.85912 15.4651L7.08398 16.4395ZM6 16.2344L5.34921 16.9936L5.36207 17.0047L5.3753 17.0152L6 16.2344ZM5.85352 14.4375L5.00696 13.9051L5.00119 13.9145L5.85352 14.4375ZM12.0449 4.63281L11.2157 4.0738L11.2112 4.08061L12.0449 4.63281ZM13.4023 2.67969L14.1592 3.33331L14.1649 3.32664L14.1706 3.31987L13.4023 2.67969ZM13.6465 2.38672L12.8914 1.73112L12.8847 1.73876L12.8783 1.74653L13.6465 2.38672ZM18.3438 1.72266L17.5766 2.36408L17.5923 2.3829L17.6089 2.40094L18.3438 1.72266ZM18.4609 2.21094H17.4609V2.22445L17.4613 2.23795L18.4609 2.21094ZM18.5 3.36328L19.4996 3.33422L19.4993 3.32627L18.5 3.36328ZM18.5488 5.04297L17.5492 5.07203L17.5494 5.07592L18.5488 5.04297ZM18.6172 6.85938L19.6167 6.82713L19.6163 6.81731L18.6172 6.85938ZM18.6758 8.67578L17.6762 8.70802L17.6768 8.72018L18.6758 8.67578ZM18.8125 11.7031L17.8136 11.7492L17.9737 15.2194L19.6831 12.1952L18.8125 11.7031ZM19.584 10.1309L18.668 9.72954L18.6669 9.73213L19.584 10.1309ZM20.4141 8.23633L19.5008 7.82888L19.4981 7.83501L20.4141 8.23633ZM22.6016 4.22266L23.415 4.80443L23.4204 4.79669L22.6016 4.22266ZM26.8008 3.76367L26.3192 4.6401L26.3219 4.64157L26.8008 3.76367ZM27.3281 4.28125L26.3291 4.23781L26.3281 4.25952V4.28125H27.3281ZM27.1816 4.67188L26.3968 4.05223L26.3839 4.06854L26.3717 4.08537L27.1816 4.67188ZM26.9766 4.95508L26.1666 4.36856L26.1639 4.37229L26.9766 4.95508ZM25.6094 6.9668L24.7689 6.42481L24.7629 6.4343L25.6094 6.9668ZM24.3008 9.04688L23.4543 8.51438L23.4497 8.52172L23.4452 8.52914L24.3008 9.04688ZM20.4336 15.2188L19.6743 14.568L19.6724 14.5703L20.4336 15.2188ZM19.8379 15.668L19.3907 14.7735L19.3811 14.7784L19.8379 15.668ZM19.0078 16L18.7095 15.0455L18.7054 15.0468L19.0078 16ZM15.7852 16L15.1125 16.7399L15.1347 16.7602L15.1581 16.779L15.7852 16ZM14.5742 11.4688L13.5902 11.6467L13.5916 11.6542L14.5742 11.4688ZM14.2422 9.63281L13.2557 9.79723L13.2582 9.81078L14.2422 9.63281ZM13.959 7.76758L14.9498 7.632L14.5842 4.96058L13.1194 7.22433L13.959 7.76758ZM13.1289 8.94922L13.9289 9.54923L13.9317 9.54554L13.1289 8.94922ZM10.2578 12.7773L11.0485 13.3896L11.0532 13.3835L11.0578 13.3773L10.2578 12.7773ZM8.08008 15.5898L7.29341 14.9725C7.11449 15.2004 6.97655 15.3443 6.87937 15.4272C6.76885 15.5214 6.77592 15.4813 6.88787 15.4589L7.08398 16.4395L7.2801 17.42C7.65247 17.3456 7.95576 17.1378 8.17727 16.9488C8.41213 16.7485 8.64202 16.4936 8.86674 16.2072L8.08008 15.5898ZM7.08398 16.4395L6.85912 15.4651C6.78192 15.4829 6.73161 15.4879 6.70411 15.4888C6.67674 15.4896 6.68185 15.486 6.70919 15.4934L6.44922 16.459L6.18925 17.4246C6.57544 17.5286 6.96685 17.4928 7.30884 17.4138L7.08398 16.4395ZM6.44922 16.459L6.70919 15.4934C6.66597 15.4817 6.64187 15.4672 6.6247 15.4535L6 16.2344L5.3753 17.0152C5.61855 17.2098 5.89393 17.3451 6.18925 17.4246L6.44922 16.459ZM6 16.2344L6.65079 15.4751C6.62184 15.4503 6.6132 15.434 6.60854 15.4234C6.60295 15.4106 6.58984 15.3742 6.58984 15.2969H5.58984H4.58984C4.58984 15.9515 4.83374 16.5518 5.34921 16.9936L6 16.2344ZM5.58984 15.2969H6.58984C6.58984 15.225 6.60966 15.1172 6.70584 14.9605L5.85352 14.4375L5.00119 13.9145C4.74581 14.3307 4.58984 14.7959 4.58984 15.2969H5.58984ZM5.85352 14.4375L6.70002 14.9699C10.5015 8.92539 12.5552 5.67336 12.8786 5.18501L12.0449 4.63281L11.2112 4.08061C10.8706 4.59487 8.79671 7.8793 5.00701 13.9051L5.85352 14.4375ZM12.0449 4.63281L12.8741 5.19181C13.2637 4.61384 13.5691 4.16588 13.7914 3.84609C13.9027 3.68595 13.991 3.56107 14.0574 3.46951C14.1308 3.3683 14.1595 3.33294 14.1592 3.33331L13.4023 2.67969L12.6455 2.02607C12.5413 2.14677 12.3631 2.39668 12.1491 2.70469C11.9188 3.03594 11.6074 3.49294 11.2157 4.07382L12.0449 4.63281ZM13.4023 2.67969L14.1706 3.31987L14.4147 3.0269L13.6465 2.38672L12.8783 1.74653L12.6341 2.0395L13.4023 2.67969ZM13.6465 2.38672L14.4016 3.04232C14.9307 2.43287 15.5968 2.12695 16.4883 2.12695V1.12695V0.126953C15.049 0.126953 13.8206 0.660875 12.8914 1.73112L13.6465 2.38672ZM16.4883 1.12695V2.12695C17.308 2.12695 17.5375 2.3174 17.5766 2.36408L18.3438 1.72266L19.1109 1.08124C18.4859 0.33364 17.4785 0.126953 16.4883 0.126953V1.12695ZM18.3438 1.72266L17.6089 2.40094C17.5483 2.33526 17.512 2.2727 17.4913 2.22887C17.4707 2.18546 17.4622 2.15374 17.4593 2.14158C17.4544 2.12122 17.4609 2.13793 17.4609 2.21094H18.4609H19.4609C19.4609 2.04306 19.448 1.85795 19.404 1.67483C19.3615 1.49766 19.2743 1.25645 19.0786 1.04438L18.3438 1.72266ZM18.4609 2.21094L17.4613 2.23795C17.468 2.48419 17.4811 2.87257 17.5007 3.40029L18.5 3.36328L19.4993 3.32627C19.4798 2.79931 19.4669 2.41945 19.4606 2.18392L18.4609 2.21094ZM18.5 3.36328L17.5004 3.39234L17.5493 5.07203L18.5488 5.04297L19.5484 5.01391L19.4996 3.33422L18.5 3.36328ZM18.5488 5.04297L17.5494 5.07592C17.569 5.67154 17.5919 6.28005 17.6181 6.90144L18.6172 6.85938L19.6163 6.81731C19.5904 6.20172 19.5677 5.5993 19.5483 5.01002L18.5488 5.04297ZM18.6172 6.85938L17.6177 6.89162L17.6763 8.70802L18.6758 8.67578L19.6753 8.64354L19.6167 6.82713L18.6172 6.85938ZM18.6758 8.67578L17.6768 8.72018C17.7289 9.89243 17.7745 10.9021 17.8136 11.7492L18.8125 11.7031L19.8114 11.657C19.7724 10.8114 19.7269 9.80289 19.6748 8.63138L18.6758 8.67578ZM18.8125 11.7031L19.6831 12.1952C19.9579 11.709 20.2302 11.1525 20.5011 10.5296L19.584 10.1309L18.6669 9.73213C18.4169 10.3071 18.1749 10.7988 17.9419 11.2111L18.8125 11.7031ZM19.584 10.1309L20.4999 10.5322L21.33 8.63764L20.4141 8.23633L19.4981 7.83501L18.668 9.72955L19.584 10.1309ZM20.4141 8.23633L21.3273 8.64377C22.068 6.98362 22.7657 5.71214 23.4149 4.8044L22.6016 4.22266L21.7882 3.64091C21.0312 4.69931 20.2706 6.10362 19.5008 7.82889L20.4141 8.23633ZM22.6016 4.22266L23.4204 4.79669C23.6189 4.51355 23.9856 4.27539 24.7891 4.27539V3.27539V2.27539C23.5613 2.27539 22.4697 2.66874 21.7827 3.64863L22.6016 4.22266ZM24.7891 3.27539V4.27539C25.3879 4.27539 25.8897 4.4041 26.3192 4.64009L26.8008 3.76367L27.2823 2.88725C26.5269 2.4722 25.6876 2.27539 24.7891 2.27539V3.27539ZM26.8008 3.76367L26.3219 4.64157C26.3884 4.67782 26.4358 4.70728 26.4678 4.72934C26.501 4.75221 26.5084 4.76078 26.5007 4.75323C26.4949 4.7475 26.4543 4.7074 26.4135 4.62968C26.3701 4.54698 26.3215 4.41122 26.3291 4.23781L27.3281 4.28125L28.3272 4.32469C28.3488 3.82841 28.066 3.48718 27.9016 3.32587C27.7189 3.14648 27.4941 3.00278 27.2796 2.88578L26.8008 3.76367ZM27.3281 4.28125H26.3281C26.3281 4.22762 26.3382 4.17553 26.3552 4.13032C26.3715 4.0867 26.3899 4.06087 26.3968 4.05223L27.1816 4.67188L27.9665 5.29152C28.1812 5.01958 28.3281 4.67635 28.3281 4.28125H27.3281ZM27.1816 4.67188L26.3717 4.08537L26.1666 4.36857L26.9766 4.95508L27.7865 5.54159L27.9916 5.25838L27.1816 4.67188ZM26.9766 4.95508L26.1639 4.37229C25.6917 5.03079 25.2267 5.71501 24.769 6.42485L25.6094 6.9668L26.4498 7.50874C26.8905 6.82535 27.337 6.16843 27.7892 5.53787L26.9766 4.95508ZM25.6094 6.9668L24.7629 6.4343L23.4543 8.51438L24.3008 9.04688L25.1472 9.57937L26.4558 7.49929L25.6094 6.9668ZM24.3008 9.04688L23.4452 8.52914C21.6034 11.5728 20.5509 13.2942 20.2698 13.7252L21.1074 14.2715L21.945 14.8178C22.2499 14.3504 23.3263 12.5887 25.1563 9.56461L24.3008 9.04688ZM21.1074 14.2715L20.2698 13.7252C19.979 14.1712 19.7847 14.4393 19.6743 14.568L20.4336 15.2188L21.1929 15.8695C21.395 15.6337 21.65 15.2702 21.945 14.8178L21.1074 14.2715ZM20.4336 15.2188L19.6724 14.5703C19.6251 14.6257 19.5412 14.6983 19.3907 14.7735L19.8379 15.668L20.2851 16.5624C20.6293 16.3903 20.9426 16.1634 21.1948 15.8672L20.4336 15.2188ZM19.8379 15.668L19.3811 14.7784C19.2003 14.8712 18.9783 14.9615 18.7095 15.0455L19.0078 16L19.3061 16.9545C19.6623 16.8432 19.9937 16.7121 20.2947 16.5575L19.8379 15.668ZM19.0078 16L18.7054 15.0468C18.0762 15.2465 17.6232 15.3223 17.3184 15.3223V16.3223V17.3223C17.9119 17.3223 18.5852 17.1832 19.3103 16.9532L19.0078 16ZM17.3184 16.3223V15.3223C16.9821 15.3223 16.7396 15.2978 16.5743 15.2631C16.3994 15.2263 16.3753 15.1913 16.4122 15.221L15.7852 16L15.1581 16.779C15.4619 17.0235 15.8268 17.1497 16.163 17.2203C16.5087 17.293 16.8994 17.3223 17.3184 17.3223V16.3223ZM15.7852 16L16.4578 15.2601C16.5405 15.3352 16.5657 15.3932 16.548 15.3611C16.537 15.341 16.5137 15.2934 16.4801 15.2072C16.4129 15.0349 16.3303 14.7752 16.2337 14.4137C16.0414 13.6943 15.8157 12.655 15.5569 11.2833L14.5742 11.4688L13.5916 11.6542C13.8536 13.0429 14.0901 14.139 14.3015 14.9301C14.4067 15.3237 14.5112 15.663 14.6166 15.9334C14.6693 16.0685 14.7286 16.2033 14.7964 16.3264C14.8577 16.4375 14.9582 16.5997 15.1125 16.7399L15.7852 16ZM14.5742 11.4688L15.5583 11.2908L15.2262 9.45485L14.2422 9.63281L13.2582 9.81078L13.5902 11.6467L14.5742 11.4688ZM14.2422 9.63281L15.2286 9.46841C15.126 8.85286 15.033 8.24072 14.9498 7.632L13.959 7.76758L12.9682 7.90316C13.0542 8.53142 13.1501 9.16277 13.2558 9.79721L14.2422 9.63281ZM13.959 7.76758L13.1194 7.22433C12.9201 7.53238 12.6569 7.90771 12.3262 8.35289L13.1289 8.94922L13.9317 9.54554C14.278 9.07927 14.5682 8.66684 14.7986 8.31083L13.959 7.76758ZM13.1289 8.94922L12.3289 8.34922L9.45781 12.1773L10.2578 12.7773L11.0578 13.3773L13.9289 9.54922L13.1289 8.94922ZM10.2578 12.7773L9.46713 12.1651L7.2894 14.9776L8.08008 15.5898L8.87076 16.2021L11.0485 13.3896L10.2578 12.7773ZM28.4805 14.7402L28.0333 15.6347L28.0402 15.6381L28.0472 15.6415L28.4805 14.7402ZM27.6113 14.0664L28.3694 13.4141L28.3646 13.4087L27.6113 14.0664ZM27.2012 10.7852L26.2658 10.4314L26.2637 10.4371L27.2012 10.7852ZM29.8281 6.27344L29.0212 5.68283L29.0199 5.68455L29.8281 6.27344ZM31.5859 4.0957L32.3184 4.77648L32.3185 4.77635L31.5859 4.0957ZM33.8516 2.91406L33.3858 3.79903L33.3952 3.80388L33.8516 2.91406ZM34.5645 3.40234L35.2427 2.66754L35.2345 2.65993L35.2261 2.65251L34.5645 3.40234ZM35.2871 4.75L34.2889 4.6895L34.2887 4.69349L35.2871 4.75ZM34.3203 6.49805L35.1093 7.11251L35.1157 7.10409L34.3203 6.49805ZM33.4609 7.60156L34.2405 8.22786L34.2453 8.22196L34.2499 8.21599L33.4609 7.60156ZM32.8652 10.9121L32.4498 10.0024L32.4382 10.0079L32.8652 10.9121ZM39.9844 5.86328L40.6925 6.56934L40.6978 6.56402L40.7031 6.55862L39.9844 5.86328ZM41.4395 4.35938L42.1581 5.05473L42.1626 5.05011L41.4395 4.35938ZM42.4746 3.31445L43.1643 4.03859L43.1647 4.03819L42.4746 3.31445ZM44.1348 3.48047L43.3822 4.13897L43.3875 4.14503L43.3929 4.15101L44.1348 3.48047ZM44.5742 4.37891L45.5716 4.4513L45.5724 4.44008L45.573 4.42884L44.5742 4.37891ZM41.4785 12.582L40.5859 12.1312L40.5841 12.1348L41.4785 12.582ZM40.209 14.9844L41.075 15.4844L41.0788 15.4779L41.0825 15.4712L40.209 14.9844ZM37.748 19.0859L36.9148 18.533L36.9125 18.5365L37.748 19.0859ZM36.5176 20.8438L37.3078 21.4566L37.3106 21.4529L36.5176 20.8438ZM33.3535 21.332L33.9918 20.5622L33.9851 20.5567L33.3535 21.332ZM32.8457 18.666L32.0629 18.0436L32.0582 18.0497L32.8457 18.666ZM35.3848 15.4727L36.1675 16.0951L36.1743 16.0864L35.3848 15.4727ZM38.0312 11.9766L38.8482 12.5532L38.8501 12.5505L38.0312 11.9766ZM40.2871 8.30469L41.1862 8.74241L39.6484 7.53522L40.2871 8.30469ZM36.9082 11.0488L37.5022 11.8533L37.5086 11.8485L37.515 11.8437L36.9082 11.0488ZM35.2285 12.2891L35.8052 13.106L35.8139 13.0999L35.8225 13.0935L35.2285 12.2891ZM29.5449 14.9844V13.9844C29.3257 13.9844 29.1188 13.9376 28.9138 13.839L28.4805 14.7402L28.0472 15.6415C28.5192 15.8684 29.0219 15.9844 29.5449 15.9844V14.9844ZM28.4805 14.7402L28.9277 13.8458C28.7048 13.7343 28.5215 13.591 28.3693 13.4142L27.6113 14.0664L26.8533 14.7186C27.1829 15.1017 27.5791 15.4076 28.0333 15.6347L28.4805 14.7402ZM27.6113 14.0664L28.3646 13.4087C27.8991 12.8756 27.7459 12.1911 28.1386 11.1332L27.2012 10.7852L26.2637 10.4371C25.6799 12.0094 25.8001 13.5124 26.8581 14.7241L27.6113 14.0664ZM27.2012 10.7852L28.1365 11.1389C28.5668 10.0012 29.385 8.57971 30.6363 6.86232L29.8281 6.27344L29.0199 5.68455C27.7192 7.46977 26.786 9.05604 26.2658 10.4314L27.2012 10.7852ZM29.8281 6.27344L30.6351 6.86404C31.2793 5.98384 31.8399 5.29137 32.3184 4.77648L31.5859 4.0957L30.8535 3.41492C30.3033 4.00681 29.6921 4.76616 29.0212 5.68283L29.8281 6.27344ZM31.5859 4.0957L32.3185 4.77635C32.7365 4.32645 33.0536 4.01228 33.2776 3.81729C33.3913 3.71831 33.459 3.66952 33.4883 3.65111C33.5025 3.64218 33.4889 3.65234 33.4525 3.66708C33.4239 3.67869 33.32 3.71875 33.168 3.71875V2.71875V1.71875C32.8109 1.71875 32.5295 1.89136 32.4229 1.95851C32.2698 2.05485 32.1145 2.17817 31.9646 2.30868C31.6613 2.57268 31.2882 2.94699 30.8533 3.41505L31.5859 4.0957ZM33.168 2.71875V3.71875C33.1675 3.71875 33.1838 3.71864 33.2204 3.7291C33.2576 3.73975 33.3125 3.76037 33.3858 3.79898L33.8516 2.91406L34.3173 2.02914C33.9733 1.8481 33.5845 1.71875 33.168 1.71875V2.71875ZM33.8516 2.91406L33.3952 3.80388C33.5726 3.89485 33.7417 4.00998 33.9028 4.15218L34.5645 3.40234L35.2261 2.65251C34.9445 2.40409 34.6383 2.19369 34.3079 2.02425L33.8516 2.91406ZM34.5645 3.40234L33.8862 4.13715C34.0854 4.32106 34.1918 4.46485 34.2447 4.5634C34.27 4.61066 34.2807 4.6431 34.2852 4.66153C34.2895 4.67896 34.2891 4.68717 34.2889 4.68951L35.2871 4.75L36.2853 4.81049C36.3381 3.93842 35.8386 3.21755 35.2427 2.66754L34.5645 3.40234ZM35.2871 4.75L34.2887 4.69349C34.2921 4.63324 34.2994 4.70203 34.1557 4.96182C34.0272 5.19417 33.822 5.50201 33.5249 5.892L34.3203 6.49805L35.1157 7.10409C35.4436 6.67377 35.7121 6.28012 35.9058 5.92978C36.0844 5.60689 36.2626 5.21181 36.2855 4.80651L35.2871 4.75ZM34.3203 6.49805L33.5313 5.88362L32.672 6.98714L33.4609 7.60156L34.2499 8.21599L35.1093 7.11247L34.3203 6.49805ZM33.4609 7.60156L32.6814 6.97527C31.7513 8.13292 31.0817 9.11475 30.8062 9.86365C30.6815 10.2023 30.5296 10.7712 30.8005 11.3101C31.1266 11.9584 31.7821 12.0781 32.1816 12.0781V11.0781V10.0781C32.0766 10.0781 32.407 10.0529 32.5874 10.4116C32.7127 10.6608 32.5945 10.7951 32.6831 10.5543C32.834 10.1444 33.3086 9.38792 34.2405 8.22786L33.4609 7.60156ZM32.1816 11.0781V12.0781C32.5738 12.0781 32.947 11.9794 33.2922 11.8164L32.8652 10.9121L32.4382 10.0079C32.3147 10.0662 32.2322 10.0781 32.1816 10.0781V11.0781ZM32.8652 10.9121L33.2806 11.8218C35.9528 10.6015 38.423 8.84562 40.6925 6.56934L39.9844 5.86328L39.2762 5.15722C37.1577 7.28199 34.8818 8.89194 32.4499 10.0025L32.8652 10.9121ZM39.9844 5.86328L40.7031 6.55862L42.1581 5.05472L41.4395 4.35938L40.7208 3.66403L39.2657 5.16794L39.9844 5.86328ZM41.4395 4.35938L42.1626 5.05011C42.5739 4.61946 42.9069 4.28371 43.1643 4.03859L42.4746 3.31445L41.785 2.59032C41.4955 2.86603 41.1383 3.2269 40.7163 3.66864L41.4395 4.35938ZM42.4746 3.31445L43.1647 4.03819C43.2177 3.98768 43.2619 3.94921 43.2977 3.92065C43.3339 3.89172 43.3568 3.87667 43.3669 3.87054C43.378 3.86388 43.3663 3.87242 43.3338 3.88369C43.3015 3.89492 43.2336 3.91406 43.1387 3.91406V2.91406V1.91406C42.7979 1.91406 42.5175 2.04728 42.3342 2.15778C42.1384 2.27588 41.9541 2.42907 41.7845 2.59072L42.4746 3.31445ZM43.1387 2.91406V3.91406C43.1225 3.91406 43.1093 3.91267 43.0997 3.91109C43.0903 3.90953 43.0851 3.90792 43.0847 3.90778C43.0844 3.90769 43.1018 3.91331 43.1373 3.93487L43.6562 3.08008L44.1752 2.22529C43.8839 2.04842 43.533 1.91406 43.1387 1.91406V2.91406ZM43.6562 3.08008L43.1373 3.93487C43.2345 3.99391 43.3147 4.0618 43.3822 4.13897L44.1348 3.48047L44.8873 2.82196C44.6814 2.58664 44.4426 2.3876 44.1752 2.22529L43.6562 3.08008ZM44.1348 3.48047L43.3929 4.15101C43.5045 4.27454 43.5556 4.35708 43.5758 4.39837C43.595 4.4375 43.5715 4.40844 43.5755 4.32897L44.5742 4.37891L45.573 4.42884C45.6062 3.76401 45.237 3.20867 44.8766 2.80993L44.1348 3.48047ZM44.5742 4.37891L43.5768 4.30652C43.5287 4.96982 43.2814 5.95042 42.7768 7.28755C42.2778 8.60978 41.55 10.2225 40.5859 12.1312L41.4785 12.582L42.3711 13.0329C43.3537 11.0874 44.1151 9.40585 44.648 7.9937C45.1753 6.59645 45.5026 5.40258 45.5716 4.4513L44.5742 4.37891ZM41.4785 12.582L40.5841 12.1348C40.1872 12.9286 39.771 13.7162 39.3355 14.4975L40.209 14.9844L41.0825 15.4712C41.5324 14.664 41.9626 13.85 42.3729 13.0292L41.4785 12.582ZM40.209 14.9844L39.343 14.4843C38.1762 16.505 37.3705 17.8464 36.9148 18.533L37.748 19.0859L38.5813 19.6389C39.0761 18.8932 39.911 17.5002 41.075 15.4844L40.209 14.9844ZM37.748 19.0859L36.9125 18.5365C36.4445 19.2481 36.0491 19.812 35.7245 20.2346L36.5176 20.8438L37.3106 21.4529C37.6761 20.9771 38.1011 20.3691 38.5836 19.6354L37.748 19.0859ZM36.5176 20.8438L35.7274 20.2309C35.3693 20.6926 35.0934 21.0028 34.894 21.1883C34.7938 21.2815 34.7369 21.3206 34.7192 21.3312C34.6867 21.3506 34.7854 21.2793 34.9746 21.2793V22.2793V23.2793C35.3071 23.2793 35.5775 23.1482 35.7451 23.048C35.9277 22.9389 36.0994 22.7986 36.2564 22.6525C36.5713 22.3595 36.9236 21.9519 37.3078 21.4566L36.5176 20.8438ZM34.9746 22.2793V21.2793C35.0517 21.2793 35.0797 21.2965 35.0387 21.2814C35.0026 21.2682 34.9359 21.2383 34.8346 21.1791C34.6304 21.0597 34.3518 20.8607 33.9918 20.5622L33.3535 21.332L32.7153 22.1019C33.117 22.4349 33.4894 22.7095 33.8256 22.9059C34.1274 23.0823 34.5364 23.2793 34.9746 23.2793V22.2793ZM33.3535 21.332L33.9851 20.5567C33.6119 20.2528 33.3749 20.0126 33.2394 19.8355C33.0893 19.6395 33.1426 19.6243 33.1426 19.75H32.1426H31.1426C31.1426 20.2728 31.3976 20.7199 31.6512 21.0512C31.9194 21.4015 32.2878 21.7538 32.722 22.1074L33.3535 21.332ZM32.1426 19.75H33.1426C33.1426 19.8787 33.1148 19.9698 33.106 19.9973C33.0947 20.0327 33.0852 20.0512 33.0869 20.0478C33.0906 20.0401 33.1097 20.0038 33.1573 19.9304C33.2507 19.7864 33.4055 19.5732 33.6332 19.2823L32.8457 18.666L32.0582 18.0497C31.8171 18.3578 31.6203 18.6247 31.4794 18.842C31.4098 18.9494 31.341 19.064 31.2861 19.1776C31.2509 19.2505 31.1426 19.4742 31.1426 19.75H32.1426ZM32.8457 18.666L33.6284 19.2884L36.1675 16.095L35.3848 15.4727L34.602 14.8503L32.063 18.0437L32.8457 18.666ZM35.3848 15.4727L36.1743 16.0864C37.4691 14.4208 38.3645 13.2385 38.8482 12.5532L38.0312 11.9766L37.2143 11.3999C36.7605 12.0427 35.8916 13.1912 34.5952 14.8589L35.3848 15.4727ZM38.0312 11.9766L38.8501 12.5505C39.8865 11.0719 40.6717 9.7993 41.1862 8.74241L40.2871 8.30469L39.388 7.86696C38.939 8.78924 38.2203 9.96458 37.2124 11.4026L38.0312 11.9766ZM40.2871 8.30469L39.6484 7.53522C37.9994 8.90394 36.8882 9.80596 36.3014 10.254L36.9082 11.0488L37.515 11.8437C38.1391 11.3672 39.2805 10.4398 40.9258 9.07415L40.2871 8.30469ZM36.9082 11.0488L36.3142 10.2444L34.6345 11.4846L35.2285 12.2891L35.8225 13.0935L37.5022 11.8533L36.9082 11.0488ZM35.2285 12.2891L34.6518 11.4721C33.4057 12.3517 32.3471 12.9911 31.47 13.407C30.5767 13.8306 29.95 13.9844 29.5449 13.9844V14.9844V15.9844C30.3833 15.9844 31.3257 15.6889 32.3269 15.2141C33.3443 14.7316 34.5058 14.0233 35.8052 13.106L35.2285 12.2891ZM48.4707 13.0703L48.4723 12.0703H48.4707V13.0703ZM48.3438 11.8984L47.4768 11.4L47.4721 11.4082L47.4675 11.4165L48.3438 11.8984ZM48.7637 11.3516L49.3884 12.1324L49.4 12.1231L49.4113 12.1135L48.7637 11.3516ZM49.1836 11.0586L48.7222 10.1714L48.7067 10.1794L48.6915 10.188L49.1836 11.0586ZM55.9902 10.9219L55.3394 11.6811L55.3556 11.695L55.3724 11.7082L55.9902 10.9219ZM55.8633 12.0547L55.0058 11.5402L55.0024 11.546L55.8633 12.0547ZM55.248 12.7871L55.8882 13.5553L55.8903 13.5536L55.248 12.7871ZM54.5254 13.0801L54.5238 14.0801H54.5254V13.0801ZM48.4707 13.0703V12.0703C48.5559 12.0703 48.7886 12.1027 48.9749 12.321C49.0555 12.4153 49.0942 12.5087 49.1121 12.5714C49.1291 12.6313 49.1289 12.6688 49.1289 12.6699H48.1289H47.1289C47.1289 12.9222 47.1794 13.298 47.4538 13.6195C47.754 13.9712 48.1576 14.0703 48.4707 14.0703V13.0703ZM48.1289 12.6699H49.1289C49.1289 12.6112 49.144 12.5184 49.22 12.3804L48.3438 11.8984L47.4675 11.4165C47.257 11.7993 47.1289 12.2208 47.1289 12.6699H48.1289ZM48.3438 11.8984L49.2107 12.3969C49.2697 12.2942 49.3179 12.2226 49.3542 12.1754C49.3922 12.126 49.4047 12.1193 49.3884 12.1324L48.7637 11.3516L48.139 10.5707C47.862 10.7923 47.6471 11.1038 47.4768 11.4L48.3438 11.8984ZM48.7637 11.3516L49.4113 12.1135C49.4929 12.0442 49.5807 11.9828 49.6757 11.9292L49.1836 11.0586L48.6915 10.188C48.487 10.3037 48.2948 10.4376 48.116 10.5896L48.7637 11.3516ZM49.1836 11.0586L49.6449 11.9458C49.8914 11.8176 50.015 11.8047 50.043 11.8047V10.8047V9.80469C49.5761 9.80469 49.1268 9.96101 48.7222 10.1714L49.1836 11.0586ZM50.043 10.8047V11.8047H55.6973V10.8047V9.80469H50.043V10.8047ZM55.6973 10.8047V11.8047C55.6209 11.8047 55.5454 11.7897 55.4772 11.7625C55.411 11.736 55.3655 11.7035 55.3394 11.6811L55.9902 10.9219L56.641 10.1626C56.3979 9.95423 56.0761 9.80469 55.6973 9.80469V10.8047ZM55.9902 10.9219L55.3724 11.7082C55.2975 11.6494 55.228 11.5661 55.1814 11.4629C55.1364 11.3632 55.127 11.2767 55.127 11.2246H56.127H57.127C57.127 10.8306 56.9724 10.4218 56.6081 10.1356L55.9902 10.9219ZM56.127 11.2246H55.127C55.127 11.2556 55.1167 11.3553 55.0058 11.5402L55.8633 12.0547L56.7208 12.5692C56.9614 12.1681 57.127 11.7145 57.127 11.2246H56.127ZM55.8633 12.0547L55.0024 11.546C54.8874 11.7405 54.7547 11.8959 54.6058 12.0206L55.248 12.7871L55.8903 13.5536C56.2232 13.2747 56.5006 12.9418 56.7242 12.5634L55.8633 12.0547ZM55.248 12.7871L54.6079 12.0189C54.5567 12.0616 54.5255 12.0762 54.5159 12.0801C54.5087 12.083 54.5138 12.0801 54.5254 12.0801V13.0801V14.0801C55.0575 14.0801 55.5174 13.8643 55.8882 13.5553L55.248 12.7871ZM54.5254 13.0801L54.527 12.0801L48.4723 12.0703L48.4707 13.0703L48.4691 14.0703L54.5238 14.0801L54.5254 13.0801ZM62.6211 15.3945L61.7584 15.9003L61.761 15.9046L62.6211 15.3945ZM62.4941 14.8477L61.5097 14.6719L61.5071 14.6865L61.5049 14.7011L62.4941 14.8477ZM62.7578 14.1445L63.6523 14.5918L63.6562 14.5837L62.7578 14.1445ZM63.3438 13.0508L62.4812 12.5448L62.4775 12.5511L62.4739 12.5574L63.3438 13.0508ZM64.2031 11.5859L63.3482 11.0672L63.3443 11.0735L63.3406 11.0799L64.2031 11.5859ZM65.2578 9.84766L64.4138 9.31135L64.4082 9.32008L64.4029 9.32893L65.2578 9.84766ZM66.4492 7.97266L65.6172 7.41796L65.6111 7.42709L65.6052 7.43635L66.4492 7.97266ZM67.6992 6.09766L68.5313 6.65236L69.964 4.50329L67.4576 5.12728L67.6992 6.09766ZM64.1055 7.49414L63.5584 6.65702L63.5508 6.66209L64.1055 7.49414ZM63.4219 8.10938L64.129 8.81648L63.4219 8.10938ZM62.3672 8.34375L61.92 9.23818L61.9527 9.25452L61.9864 9.26843L62.3672 8.34375ZM62.1133 8.14844L62.8815 7.50825L62.8762 7.50183L62.8707 7.4955L62.1133 8.14844ZM62.0254 7.52344L62.9349 7.9392L62.9612 7.8815L62.9801 7.82092L62.0254 7.52344ZM63.2266 4.76953L64.1007 5.25518L64.1028 5.25145L63.2266 4.76953ZM63.9102 3.87109L63.5139 2.95295L63.5024 2.9579L63.4911 2.96313L63.9102 3.87109ZM71.6445 2.70898L71.5834 1.71085L71.5832 1.71087L71.6445 2.70898ZM78.2852 3.57812L78.9145 2.80098L78.9076 2.79546L78.2852 3.57812ZM75.8828 10.5703L75.421 9.68331L75.4176 9.68513L75.8828 10.5703ZM71.9375 12.1133L72.1566 13.0891L72.1691 13.0861L71.9375 12.1133ZM70.6094 12.1523L70.4019 13.1306L70.4077 13.1318L70.6094 12.1523ZM70.0234 11.957L69.5762 12.8515L69.5829 12.8548L69.5896 12.858L70.0234 11.957ZM70.5996 9.93555L71.0724 10.8167L71.0744 10.8156L70.5996 9.93555ZM72.6992 8.80273L72.2281 7.92063L72.2244 7.92266L72.6992 8.80273ZM75.3262 6.08789L74.4109 6.49063L74.4175 6.50574L74.4247 6.52062L75.3262 6.08789ZM71.7227 5.38477L71.6122 4.39088L71.1049 4.44726L70.8529 4.89124L71.7227 5.38477ZM70.5312 7.48438L69.6614 6.99081L69.6553 7.00206L70.5312 7.48438ZM67.4258 14.9453L68.3942 15.1948L68.3964 15.1858L67.4258 14.9453ZM62.6211 15.3945L63.4838 14.8888C63.4711 14.8671 63.4753 14.8679 63.4804 14.8901C63.4861 14.9145 63.4897 14.9515 63.4833 14.9942L62.4941 14.8477L61.5049 14.7011C61.4383 15.1508 61.5599 15.5617 61.7584 15.9003L62.6211 15.3945ZM62.4941 14.8477L63.4786 15.0234C63.4864 14.9798 63.5255 14.8452 63.6522 14.5917L62.7578 14.1445L61.8634 13.6973C61.7037 14.0168 61.567 14.3509 61.5097 14.6719L62.4941 14.8477ZM62.7578 14.1445L63.6562 14.5837C63.7871 14.3161 63.9715 13.9709 64.2136 13.5441L63.3438 13.0508L62.4739 12.5574C62.2212 13.0031 62.015 13.3871 61.8594 13.7053L62.7578 14.1445ZM63.3438 13.0508L64.2063 13.5568L65.0657 12.092L64.2031 11.5859L63.3406 11.0799L62.4812 12.5448L63.3438 13.0508ZM64.2031 11.5859L65.0581 12.1047L66.1128 10.3664L65.2578 9.84766L64.4029 9.32893L63.3482 11.0672L64.2031 11.5859ZM65.2578 9.84766L66.1018 10.384L67.2932 8.50896L66.4492 7.97266L65.6052 7.43635L64.4138 9.31135L65.2578 9.84766ZM66.4492 7.97266L67.2813 8.52736L68.5313 6.65236L67.6992 6.09766L66.8672 5.54296L65.6172 7.41796L66.4492 7.97266ZM67.6992 6.09766L67.4576 5.12728C65.84 5.53 64.5195 6.02895 63.5584 6.65705L64.1055 7.49414L64.6525 8.33123C65.3451 7.8786 66.4204 7.44657 67.9408 7.06804L67.6992 6.09766ZM64.1055 7.49414L63.5508 6.66209C63.3692 6.78311 63.1988 6.91824 63.0468 7.07024L63.7539 7.77734L64.461 8.48445C64.5043 8.44114 64.5683 8.38746 64.6602 8.32619L64.1055 7.49414ZM63.7539 7.77734L63.0468 7.07024L62.7148 7.40227L63.4219 8.10938L64.129 8.81648L64.461 8.48445L63.7539 7.77734ZM63.4219 8.10938L62.7148 7.40227C62.6684 7.44859 62.6518 7.45344 62.6685 7.44494C62.678 7.44013 62.697 7.43166 62.7251 7.42448C62.7536 7.41716 62.7879 7.41211 62.8262 7.41211V8.41211V9.41211C63.388 9.41211 63.826 9.11946 64.129 8.81648L63.4219 8.10938ZM62.8262 8.41211V7.41211C62.7657 7.41211 62.7293 7.40846 62.7123 7.40593C62.7043 7.40475 62.7037 7.40426 62.7091 7.40566C62.7144 7.40704 62.7281 7.4109 62.7479 7.41907L62.3672 8.34375L61.9864 9.26843C62.2704 9.38534 62.5724 9.41211 62.8262 9.41211V8.41211ZM62.3672 8.34375L62.8144 7.44932C62.8158 7.45002 62.8464 7.46608 62.8815 7.50825L62.1133 8.14844L61.3451 8.78862C61.5104 8.98704 61.7102 9.13331 61.92 9.23818L62.3672 8.34375ZM62.1133 8.14844L62.8707 7.4955C62.8911 7.51916 62.9428 7.59271 62.9595 7.71133C62.9761 7.82957 62.9468 7.91317 62.9349 7.9392L62.0254 7.52344L61.1159 7.10768C60.9999 7.36157 60.9331 7.66327 60.979 7.98984C61.025 8.3168 61.1727 8.58891 61.3559 8.80138L62.1133 8.14844ZM62.0254 7.52344L62.9801 7.82092C63.2371 6.99611 63.6086 6.141 64.1007 5.25517L63.2266 4.76953L62.3524 4.28389C61.8029 5.27306 61.3736 6.25389 61.0707 7.22595L62.0254 7.52344ZM63.2266 4.76953L64.1028 5.25145C64.2342 5.01252 64.3359 4.85471 64.4081 4.75982C64.4438 4.71297 64.4616 4.69556 64.4613 4.69589C64.4604 4.69676 64.4504 4.70624 64.4313 4.72012C64.4125 4.73373 64.3784 4.75635 64.3292 4.77905L63.9102 3.87109L63.4911 2.96313C63.1712 3.11078 62.948 3.37589 62.8165 3.54878C62.6608 3.75337 62.5054 4.00571 62.3503 4.28761L63.2266 4.76953ZM63.9102 3.87109L64.3064 4.78924C64.8028 4.57499 65.6525 4.35952 66.9201 4.16908C68.1697 3.98132 69.7624 3.82655 71.7059 3.7071L71.6445 2.70898L71.5832 1.71087C69.6074 1.83231 67.9514 1.99166 66.6229 2.19128C65.3123 2.3882 64.2545 2.63334 63.5139 2.95295L63.9102 3.87109ZM71.6445 2.70898L71.7056 3.70712C72.9594 3.63035 74.2801 3.5918 75.668 3.5918V2.5918V1.5918C74.2433 1.5918 72.8817 1.63137 71.5834 1.71085L71.6445 2.70898ZM75.668 2.5918V3.5918C76.3265 3.5918 76.9848 3.82169 77.6627 4.36079L78.2852 3.57812L78.9076 2.79546C77.9318 2.01945 76.8454 1.5918 75.668 1.5918V2.5918ZM78.2852 3.57812L77.6558 4.35524C78.361 4.92636 78.6719 5.58501 78.6719 6.39062H79.6719H80.6719C80.6719 4.94364 80.0583 3.72728 78.9145 2.80101L78.2852 3.57812ZM79.6719 6.39062H78.6719C78.6719 7.23973 77.9204 8.38208 75.421 9.68332L75.8828 10.5703L76.3446 11.4573C78.8973 10.1283 80.6719 8.48422 80.6719 6.39062H79.6719ZM75.8828 10.5703L75.4176 9.68513C74.0742 10.3912 72.8379 10.871 71.7059 11.1405L71.9375 12.1133L72.1691 13.0861C73.4981 12.7697 74.892 12.2208 76.3481 11.4555L75.8828 10.5703ZM71.9375 12.1133L71.7185 11.1376C71.4212 11.2043 71.2594 11.2207 71.1953 11.2207V12.2207V13.2207C71.4828 13.2207 71.8158 13.1655 72.1565 13.089L71.9375 12.1133ZM71.1953 12.2207V11.2207C71.112 11.2207 70.9866 11.209 70.811 11.1729L70.6094 12.1523L70.4077 13.1318C70.6749 13.1868 70.9401 13.2207 71.1953 13.2207V12.2207ZM70.6094 12.1523L70.8169 11.1741C70.6707 11.1431 70.5526 11.1019 70.4573 11.056L70.0234 11.957L69.5896 12.858C69.8458 12.9814 70.1184 13.0704 70.4019 13.1306L70.6094 12.1523ZM70.0234 11.957L70.4706 11.0626C70.4074 11.031 70.3664 11.0048 70.3419 10.9868C70.3174 10.9689 70.3151 10.9632 70.3237 10.9736C70.3333 10.9851 70.3538 11.0134 70.3713 11.059C70.3893 11.106 70.3984 11.1568 70.3984 11.2051H69.3984H68.3984C68.3984 12.0706 69.0384 12.5825 69.5762 12.8515L70.0234 11.957ZM69.3984 11.2051H70.3984C70.3984 11.3392 70.3302 11.3628 70.4251 11.2625C70.5225 11.1596 70.7197 11.006 71.0724 10.8167L70.5996 9.93555L70.1268 9.05439C69.6787 9.29483 69.2754 9.56766 68.9723 9.88792C68.6669 10.2107 68.3984 10.6543 68.3984 11.2051H69.3984ZM70.5996 9.93555L71.0744 10.8156L73.174 9.68281L72.6992 8.80273L72.2244 7.92266L70.1248 9.05547L70.5996 9.93555ZM72.6992 8.80273L73.1703 9.68483C73.8026 9.34713 74.3279 9.04854 74.7393 8.79055C75.1314 8.54462 75.4837 8.29699 75.7187 8.05672L75.0039 7.35742L74.2891 6.65813C74.2312 6.71733 74.0528 6.86032 73.6767 7.09617C73.3199 7.31995 72.8393 7.59427 72.2281 7.92064L72.6992 8.80273ZM75.0039 7.35742L75.7187 8.05672C75.8968 7.87472 76.0636 7.67657 76.191 7.4642C76.3136 7.2599 76.4434 6.9703 76.4434 6.625H75.4434H74.4434C74.4434 6.54305 74.4591 6.4846 74.4686 6.45648C74.478 6.42878 74.4844 6.42118 74.476 6.43521C74.468 6.44862 74.4505 6.47493 74.4185 6.51453C74.3868 6.55372 74.3444 6.60153 74.2891 6.65813L75.0039 7.35742ZM75.4434 6.625H76.4434C76.4434 6.29236 76.3758 5.96378 76.2277 5.65516L75.3262 6.08789L74.4247 6.52062C74.4328 6.53753 74.4434 6.56702 74.4434 6.625H75.4434ZM75.3262 6.08789L76.2415 5.68515C76.1182 5.40487 75.9453 5.15604 75.7305 4.94133L75.0234 5.64844L74.3163 6.35554C74.362 6.40125 74.391 6.44539 74.4109 6.49063L75.3262 6.08789ZM75.0234 5.64844L75.7305 4.94133C75.3109 4.52171 74.77 4.22852 74.125 4.22852V5.22852V6.22852C74.1328 6.22852 74.1433 6.22909 74.1654 6.23943C74.1913 6.25149 74.2428 6.28203 74.3163 6.35554L75.0234 5.64844ZM74.125 5.22852V4.22852C73.4123 4.22852 72.5725 4.28418 71.6122 4.39088L71.7227 5.38477L71.8331 6.37865C72.7478 6.27702 73.5096 6.22852 74.125 6.22852V5.22852ZM71.7227 5.38477L70.8529 4.89124L69.6615 6.99085L70.5312 7.48438L71.401 7.9779L72.5924 5.87829L71.7227 5.38477ZM70.5312 7.48438L69.6553 7.00206C68.1048 9.81797 67.0293 12.3878 66.4551 14.7048L67.4258 14.9453L68.3964 15.1858C68.9161 13.0887 69.9108 10.6846 71.4072 7.96669L70.5312 7.48438ZM67.4258 14.9453L66.4574 14.6959C66.4226 14.8308 66.3568 14.9294 66.1754 15.0226C65.9548 15.1359 65.5614 15.2344 64.916 15.2344V16.2344V17.2344C65.7225 17.2344 66.4733 17.118 67.0892 16.8016C67.7444 16.4651 68.2076 15.9192 68.3942 15.1947L67.4258 14.9453ZM64.916 16.2344V15.2344C63.7788 15.2344 63.5222 14.9535 63.4812 14.8845L62.6211 15.3945L61.761 15.9046C62.3841 16.9553 63.6574 17.2344 64.916 17.2344V16.2344ZM95.0137 11.5469L95.7269 12.2478L95.7465 12.2278L95.765 12.2068L95.0137 11.5469ZM94.457 12.1133L95.1642 12.8204L95.1703 12.8142L94.457 12.1133ZM89.6914 15.4824L90.0411 16.4193L90.043 16.4186L89.6914 15.4824ZM87.6992 15.4336L87.0063 16.1548L87.0161 16.1639L87.6992 15.4336ZM86.9082 13.8906L87.8724 13.6253L87.8722 13.6247L86.9082 13.8906ZM86.6738 13.041L87.6378 12.7751L87.2838 11.4919L86.15 12.1892L86.6738 13.041ZM84.5938 14.3203L85.0884 15.1894L85.1031 15.181L85.1176 15.1721L84.5938 14.3203ZM83.3926 15.0039L83.8714 15.8818L83.8793 15.8775L83.8872 15.873L83.3926 15.0039ZM77.875 15.1113L78.6323 14.4582L78.628 14.4533L77.875 15.1113ZM78.041 10.4434L77.3409 9.72929L77.3406 9.72961L78.041 10.4434ZM82.7578 7.75781L82.4067 6.82148L82.4036 6.82265L82.7578 7.75781ZM87.4648 8.32422L87.8588 9.24337L87.8629 9.24156L87.4648 8.32422ZM86.2344 8.85156L86.6199 9.77429L86.6283 9.77071L86.2344 8.85156ZM82.2305 11.2246L82.9177 11.9511L82.9264 11.9427L82.2305 11.2246ZM84.75 11.1172L85.2578 11.9787L85.2584 11.9783L84.75 11.1172ZM85.5605 10.6387L86.0689 11.4998L86.0757 11.4958L85.5605 10.6387ZM90.1406 10.4531L91.0856 10.126L91.082 10.1156L91.0781 10.1052L90.1406 10.4531ZM90.3066 10.9707L89.3478 11.2548L89.3509 11.2648L90.3066 10.9707ZM90.4629 11.4297L91.4016 11.0848L91.3974 11.0737L90.4629 11.4297ZM91.1855 11.7715L91.6459 12.6592L91.6586 12.6526L91.6712 12.6456L91.1855 11.7715ZM91.7617 11.4102L92.3283 12.2342L92.3335 12.2306L91.7617 11.4102ZM92.4258 10.9219L93.0366 11.7137L93.044 11.708L93.0513 11.7021L92.4258 10.9219ZM93.6074 9.97461L94.2329 10.7548L94.2401 10.7491L94.2471 10.7432L93.6074 9.97461ZM95.9707 8.66602V9.66602C95.8791 9.66602 95.7505 9.64554 95.6172 9.57055C95.4829 9.49504 95.3955 9.39323 95.3448 9.30765C95.2611 9.1665 95.2832 9.08365 95.2832 9.19336H96.2832H97.2832C97.2832 8.95151 97.2532 8.60498 97.0654 8.28805C96.8289 7.88903 96.4196 7.66602 95.9707 7.66602V8.66602ZM96.2832 9.19336H95.2832C95.2832 9.27043 95.2531 9.45083 95.0857 9.76109C94.9218 10.065 94.6555 10.4394 94.2624 10.8869L95.0137 11.5469L95.765 12.2068C96.2182 11.6908 96.5867 11.1912 96.8459 10.7106C97.1018 10.2363 97.2832 9.72176 97.2832 9.19336H96.2832ZM95.0137 11.5469L94.3004 10.8459L93.7438 11.4123L94.457 12.1133L95.1703 12.8142L95.7269 12.2478L95.0137 11.5469ZM94.457 12.1133L93.7499 11.4062C92.1189 13.0372 90.6477 14.0551 89.3398 14.5463L89.6914 15.4824L90.043 16.4186C91.7169 15.79 93.4228 14.5618 95.1641 12.8204L94.457 12.1133ZM89.6914 15.4824L89.3417 14.5456C88.9464 14.6931 88.6827 14.7332 88.5245 14.7293C88.4504 14.7275 88.4116 14.7163 88.3969 14.7109C88.3847 14.7064 88.383 14.7039 88.3824 14.7033L87.6992 15.4336L87.0161 16.1639C87.8664 16.9593 89.0492 16.7895 90.0411 16.4193L89.6914 15.4824ZM87.6992 15.4336L88.392 14.7125C88.2456 14.5718 88.0458 14.2553 87.8724 13.6253L86.9082 13.8906L85.9441 14.156C86.1613 14.9452 86.4888 15.6574 87.0064 16.1547L87.6992 15.4336ZM86.9082 13.8906L87.8722 13.6247L87.6378 12.7751L86.6738 13.041L85.7098 13.3069L85.9442 14.1566L86.9082 13.8906ZM86.6738 13.041L86.15 12.1892L84.0699 13.4685L84.5938 14.3203L85.1176 15.1721L87.1977 13.8928L86.6738 13.041ZM84.5938 14.3203L84.0991 13.4512L82.898 14.1348L83.3926 15.0039L83.8872 15.873L85.0884 15.1894L84.5938 14.3203ZM83.3926 15.0039L82.9137 14.126C81.4856 14.905 80.6091 15.1758 80.1699 15.1758V16.1758V17.1758C81.163 17.1758 82.435 16.6653 83.8714 15.8818L83.3926 15.0039ZM80.1699 16.1758V15.1758C79.5497 15.1758 79.0589 14.9529 78.6323 14.4583L77.875 15.1113L77.1177 15.7644C77.9151 16.689 78.9542 17.1758 80.1699 17.1758V16.1758ZM77.875 15.1113L78.628 14.4533C78.2003 13.9638 77.9961 13.4192 77.9961 12.7773H76.9961H75.9961C75.9961 13.9063 76.3778 14.9177 77.122 15.7693L77.875 15.1113ZM76.9961 12.7773H77.9961C77.9961 12.2065 78.2115 11.6771 78.7414 11.1571L78.041 10.4434L77.3406 9.72961C76.4773 10.5768 75.9961 11.6034 75.9961 12.7773H76.9961ZM78.041 10.4434L78.7411 11.1574C79.5947 10.3205 81.0198 9.4855 83.112 8.69297L82.7578 7.75781L82.4036 6.82265C80.199 7.65773 78.4795 8.61305 77.3409 9.72929L78.041 10.4434ZM82.7578 7.75781L83.1089 8.69414C85.098 7.94824 86.6067 7.61523 87.6797 7.61523V6.61523V5.61523C86.2527 5.61523 84.4801 6.04394 82.4067 6.82148L82.7578 7.75781ZM87.6797 6.61523V7.61523C87.741 7.61523 87.6025 7.63016 87.4542 7.48405C87.3029 7.33513 87.3145 7.19 87.3145 7.24023H88.3145H89.3145C89.3145 6.8738 89.2202 6.41617 88.8574 6.05892C88.4974 5.70448 88.0416 5.61523 87.6797 5.61523V6.61523ZM88.3145 7.24023H87.3145C87.3145 7.28002 87.3125 7.3102 87.3101 7.33193C87.3077 7.35372 87.3051 7.36468 87.3046 7.36678C87.3033 7.37164 87.313 7.33043 87.3572 7.27332L88.1484 7.88477L88.9397 8.49621C89.2444 8.10193 89.3145 7.62764 89.3145 7.24023H88.3145ZM88.1484 7.88477L87.3572 7.27332C87.3971 7.22157 87.4146 7.22177 87.3538 7.26087C87.2989 7.29615 87.2073 7.3459 87.0667 7.40687L87.4648 8.32422L87.8629 9.24156C88.2297 9.08242 88.6636 8.8536 88.9397 8.49621L88.1484 7.88477ZM87.4648 8.32422L87.0709 7.40507L85.8405 7.93242L86.2344 8.85156L86.6283 9.77071L87.8588 9.24336L87.4648 8.32422ZM86.2344 8.85156L85.8488 7.92888C83.9779 8.71066 82.5113 9.55982 81.5345 10.5065L82.2305 11.2246L82.9264 11.9427C83.6424 11.2488 84.845 10.5159 86.6199 9.77425L86.2344 8.85156ZM82.2305 11.2246L81.5433 10.4981C81.2096 10.8138 80.8691 11.2802 80.8691 11.8887H81.8691H82.8691C82.8691 11.9296 82.8633 11.9649 82.8557 11.9925C82.8482 12.0194 82.8402 12.0352 82.8379 12.0395C82.8357 12.0434 82.8386 12.0372 82.8516 12.021C82.8645 12.005 82.8856 11.9814 82.9177 11.9511L82.2305 11.2246ZM81.8691 11.8887H80.8691C80.8691 12.3176 81.0708 12.7307 81.47 12.9793C81.7905 13.1788 82.1428 13.2109 82.3867 13.2109V12.2109V11.2109C82.2856 11.2109 82.3792 11.1894 82.5271 11.2815C82.6156 11.3366 82.713 11.4268 82.7831 11.5577C82.8519 11.6861 82.8691 11.8066 82.8691 11.8887H81.8691ZM82.3867 12.2109V13.2109C82.626 13.2109 82.8552 13.1515 83.0328 13.094C83.2249 13.0318 83.4332 12.946 83.6515 12.845C84.0883 12.6428 84.6266 12.3507 85.2578 11.9787L84.75 11.1172L84.2422 10.2557C83.6364 10.6128 83.1623 10.8676 82.8114 11.03C82.6358 11.1113 82.5064 11.1622 82.4169 11.1912C82.3129 11.2248 82.3167 11.2109 82.3867 11.2109V12.2109ZM84.75 11.1172L85.2584 11.9783L86.0689 11.4998L85.5605 10.6387L85.0522 9.77754L84.2416 10.2561L84.75 11.1172ZM85.5605 10.6387L86.0757 11.4958C87.2763 10.7742 88.1388 10.5059 88.7148 10.5059V9.50586V8.50586C87.5981 8.50586 86.3578 8.99277 85.0454 9.78157L85.5605 10.6387ZM88.7148 9.50586V10.5059C88.9263 10.5059 89.0187 10.5515 89.055 10.5756C89.0864 10.5965 89.1458 10.6467 89.2031 10.8011L90.1406 10.4531L91.0781 10.1052C90.9011 9.62808 90.6056 9.20464 90.1618 8.90975C89.7228 8.6181 89.2196 8.50586 88.7148 8.50586V9.50586ZM90.1406 10.4531L89.1956 10.7802C89.2492 10.9349 89.2999 11.0931 89.3478 11.2548L90.3066 10.9707L91.2654 10.6866C91.2092 10.4967 91.1492 10.3098 91.0856 10.126L90.1406 10.4531ZM90.3066 10.9707L89.3509 11.2648C89.4081 11.4508 89.4671 11.6249 89.5284 11.7857L90.4629 11.4297L91.3974 11.0737C91.3545 10.9611 91.3094 10.8292 91.2624 10.6766L90.3066 10.9707ZM90.4629 11.4297L89.5242 11.7745C89.592 11.959 89.678 12.1614 89.7916 12.3354C89.8482 12.422 89.9385 12.5438 90.0721 12.6528C90.2072 12.7632 90.4476 12.9082 90.7754 12.9082V11.9082V10.9082C91.0576 10.9082 91.2508 11.0332 91.3371 11.1038C91.4218 11.1729 91.4617 11.2349 91.4662 11.2418C91.4756 11.2562 91.451 11.2194 91.4016 11.0849L90.4629 11.4297ZM90.7754 11.9082V12.9082C91.1273 12.9082 91.4454 12.7632 91.6459 12.6592L91.1855 11.7715L90.7252 10.8837C90.6978 10.898 90.6762 10.9081 90.6602 10.9151C90.644 10.9222 90.6358 10.925 90.6349 10.9253C90.6337 10.9258 90.6443 10.9221 90.6651 10.918C90.6854 10.9141 90.7235 10.9082 90.7754 10.9082V11.9082ZM91.1855 11.7715L91.6712 12.6456C91.8807 12.5293 92.1001 12.3911 92.3282 12.2342L91.7617 11.4102L91.1952 10.5861C91.0067 10.7157 90.842 10.8184 90.6999 10.8973L91.1855 11.7715ZM91.7617 11.4102L92.3335 12.2306C92.5628 12.0707 92.7972 11.8983 93.0366 11.7137L92.4258 10.9219L91.815 10.1301C91.5986 10.297 91.3903 10.4501 91.1899 10.5898L91.7617 11.4102ZM92.4258 10.9219L93.0513 11.7021L94.2329 10.7548L93.6074 9.97461L92.9819 9.19437L91.8003 10.1416L92.4258 10.9219ZM93.6074 9.97461L94.2471 10.7432C94.7448 10.329 95.1502 10.0444 95.4688 9.868C95.6267 9.78054 95.7499 9.72723 95.8412 9.69695C95.934 9.66617 95.9734 9.66602 95.9707 9.66602V8.66602V7.66602C95.4569 7.66602 94.9503 7.86894 94.5 8.11833C94.0308 8.37813 93.5182 8.74784 92.9677 9.206L93.6074 9.97461ZM102.143 9.28125L101.432 8.57772L101.423 8.58707L102.143 9.28125ZM103.09 8.32422L102.39 7.60993L102.385 7.6153L102.379 7.62075L103.09 8.32422ZM105.355 7.75781L106.023 7.01357L106.022 7.01257L105.355 7.75781ZM105.648 9.33984L104.666 9.15556L104.664 9.16379L104.663 9.17204L105.648 9.33984ZM105.395 10.375L104.438 10.0832L104.437 10.0877L105.395 10.375ZM104.232 13.2559L105.139 13.6782L105.139 13.6774L104.232 13.2559ZM103.832 14.1152L102.926 13.6929L104.503 14.8564L103.832 14.1152ZM105.492 12.6113L104.842 11.8518L104.831 11.8608L104.821 11.8702L105.492 12.6113ZM108.891 9.70117L108.288 8.90298L108.264 8.92155L108.24 8.94161L108.891 9.70117ZM109.535 11.9082L108.766 11.2693L108.758 11.2784L109.535 11.9082ZM108.9 12.582L109.556 13.337L109.566 13.3286L109.575 13.3201L108.9 12.582ZM106.596 14.584L107.241 15.3476L107.251 15.3389L106.596 14.584ZM102.104 18.3828L101.458 17.6192L101.448 17.6279L102.104 18.3828ZM101.205 19.2031L100.498 18.496L100.415 18.5787L100.354 18.6782L101.205 19.2031ZM100.639 20.0723L99.8287 19.4858L99.8174 19.5014L99.8066 19.5176L100.639 20.0723ZM100.248 20.6875L99.3928 20.1692L99.3861 20.1805L100.248 20.6875ZM99.8672 21.2539L99.0831 20.6332L99.0819 20.6348L99.8672 21.2539ZM98.2559 21.4199L97.5959 22.1712L97.5974 22.1725L98.2559 21.4199ZM97.8066 19.125L96.884 18.7394L96.882 18.7443L97.8066 19.125ZM98.5195 17.6211L97.6404 17.1444L97.6358 17.153L97.6313 17.1617L98.5195 17.6211ZM100.59 13.8027L101.469 14.2794L99.9201 13.0602L100.59 13.8027ZM98.2461 15.5898L98.6974 16.4822L98.7055 16.4781L98.2461 15.5898ZM96.8105 16.1562L96.5833 15.1824L96.5737 15.1847L96.5641 15.1871L96.8105 16.1562ZM94.4473 16.0293L94.9359 15.1568L94.9292 15.153L94.9224 15.1494L94.4473 16.0293ZM93.6367 15.3164L92.8187 15.8917L92.8242 15.8993L93.6367 15.3164ZM93.7734 10.0137L94.6619 10.4726L94.6654 10.4657L93.7734 10.0137ZM95.707 7.68945L96.2975 8.49649L96.3011 8.49389L95.707 7.68945ZM98.5391 9.74023L99.2934 10.3967L99.2959 10.3939L98.5391 9.74023ZM97.4258 11.8496H96.4258C96.4258 12.2413 96.5704 12.6817 96.9726 12.985C97.3216 13.2481 97.7259 13.2988 98.0215 13.2988V12.2988V11.2988C97.9199 11.2988 98.0264 11.2747 98.1768 11.3881C98.2614 11.4519 98.3327 11.5401 98.3776 11.6418C98.4201 11.7378 98.4258 11.8151 98.4258 11.8496H97.4258ZM98.0215 12.2988V13.2988C98.7712 13.2988 99.5442 12.8666 100.248 12.3513C101.001 11.8 101.874 10.9999 102.862 9.97543L102.143 9.28125L101.423 8.58707C100.471 9.5743 99.6873 10.283 99.0664 10.7376C98.7565 10.9646 98.5072 11.1132 98.3144 11.2022C98.2193 11.246 98.1467 11.2712 98.0946 11.285C98.0423 11.2989 98.0197 11.2988 98.0215 11.2988V12.2988ZM102.143 9.28125L102.853 9.98472L103.801 9.02769L103.09 8.32422L102.379 7.62075L101.432 8.57778L102.143 9.28125ZM103.09 8.32422L103.79 9.0385C104.098 8.736 104.329 8.53557 104.488 8.41744C104.568 8.35803 104.609 8.33545 104.617 8.3315C104.643 8.31889 104.544 8.37695 104.369 8.37695V7.37695V6.37695C104.09 6.37695 103.86 6.47448 103.727 6.54081C103.576 6.61581 103.431 6.71163 103.298 6.8101C103.031 7.00772 102.726 7.28093 102.39 7.60993L103.09 8.32422ZM104.369 7.37695V8.37695C104.462 8.37695 104.507 8.39268 104.523 8.39969L104.926 7.48438L105.329 6.56906C105.019 6.43284 104.693 6.37695 104.369 6.37695V7.37695ZM104.926 7.48438L104.523 8.39969C104.596 8.4319 104.649 8.46747 104.689 8.50305L105.355 7.75781L106.022 7.01257C105.815 6.8268 105.581 6.68008 105.329 6.56906L104.926 7.48438ZM105.355 7.75781L104.688 8.50205C104.746 8.55422 104.757 8.57998 104.754 8.57317C104.752 8.56918 104.747 8.55854 104.743 8.54198C104.739 8.52518 104.736 8.50731 104.736 8.49023H105.736H106.736C106.736 7.8644 106.419 7.3689 106.023 7.01357L105.355 7.75781ZM105.736 8.49023H104.736C104.736 8.66916 104.715 8.88936 104.666 9.15556L105.648 9.33984L106.631 9.52413C106.699 9.16533 106.736 8.81912 106.736 8.49023H105.736ZM105.648 9.33984L104.663 9.17204C104.619 9.42603 104.546 9.72863 104.438 10.0832L105.395 10.375L106.351 10.6668C106.477 10.2531 106.573 9.86563 106.634 9.50764L105.648 9.33984ZM105.395 10.375L104.437 10.0877C104.242 10.7357 103.878 11.6455 103.326 12.8343L104.232 13.2559L105.139 13.6774C105.706 12.4573 106.117 11.4466 106.352 10.6623L105.395 10.375ZM104.232 13.2559L103.326 12.8335L102.926 13.6929L103.832 14.1152L104.738 14.5376L105.139 13.6782L104.232 13.2559ZM103.832 14.1152L104.503 14.8564L106.164 13.3525L105.492 12.6113L104.821 11.8702L103.161 13.3741L103.832 14.1152ZM105.492 12.6113L106.143 13.3709L109.541 10.4607L108.891 9.70117L108.24 8.94161L104.842 11.8518L105.492 12.6113ZM108.891 9.70117L109.493 10.4994C109.627 10.3982 109.721 10.3444 109.778 10.3186C109.838 10.2914 109.822 10.3105 109.75 10.3105V9.31055V8.31055C109.182 8.31055 108.673 8.61251 108.288 8.90298L108.891 9.70117ZM109.75 9.31055V10.3105C109.853 10.3105 109.745 10.3359 109.614 10.21C109.475 10.0768 109.492 9.95043 109.492 10.0234H110.492H111.492C111.492 9.62118 111.385 9.13834 110.999 8.76757C110.621 8.40402 110.142 8.31055 109.75 8.31055V9.31055ZM110.492 10.0234H109.492C109.492 10.1338 109.385 10.5235 108.766 11.2693L109.535 11.9082L110.304 12.5471C110.961 11.7564 111.492 10.8896 111.492 10.0234H110.492ZM109.535 11.9082L108.758 11.2784C108.594 11.4809 108.417 11.6693 108.226 11.844L108.9 12.582L109.575 13.3201C109.84 13.0781 110.085 12.8173 110.312 12.538L109.535 11.9082ZM108.9 12.582L108.245 11.8271L105.94 13.829L106.596 14.584L107.251 15.3389L109.556 13.337L108.9 12.582ZM106.596 14.584L105.95 13.8204L101.458 17.6192L102.104 18.3828L102.749 19.1464L107.241 15.3476L106.596 14.584ZM102.104 18.3828L101.448 17.6279C101.045 17.9779 100.725 18.2693 100.498 18.496L101.205 19.2031L101.912 19.9102C102.089 19.7333 102.368 19.4779 102.759 19.1377L102.104 18.3828ZM101.205 19.2031L100.354 18.6782C100.116 19.0638 99.943 19.3279 99.8287 19.4858L100.639 20.0723L101.449 20.6588C101.608 20.439 101.812 20.1237 102.056 19.728L101.205 19.2031ZM100.639 20.0723L99.8066 19.5176C99.6679 19.7256 99.53 19.9429 99.3929 20.1692L100.248 20.6875L101.103 21.2058C101.227 21.0024 101.349 20.8095 101.471 20.627L100.639 20.0723ZM100.248 20.6875L99.3861 20.1805C99.2729 20.3729 99.1715 20.5216 99.0831 20.6332L99.8672 21.2539L100.651 21.8746C100.81 21.6737 100.963 21.4448 101.11 21.1945L100.248 20.6875ZM99.8672 21.2539L99.0819 20.6348C99.0398 20.6881 99.0048 20.7258 98.9778 20.7515C98.9507 20.7773 98.9348 20.788 98.9313 20.7903C98.9281 20.7923 98.9392 20.7847 98.9644 20.7767C98.9906 20.7684 99.0257 20.7617 99.0664 20.7617V21.7617V22.7617C99.7879 22.7617 100.312 22.3048 100.652 21.8731L99.8672 21.2539ZM99.0664 21.7617V20.7617C99.0662 20.7617 99.0604 20.7625 99.0424 20.7548C99.0216 20.7461 98.9783 20.7233 98.9144 20.6673L98.2559 21.4199L97.5974 22.1725C97.9953 22.5207 98.4908 22.7617 99.0664 22.7617V21.7617ZM98.2559 21.4199L98.9158 20.6686C98.7179 20.4948 98.6101 20.3648 98.5569 20.2815C98.5042 20.1989 98.5332 20.2069 98.5332 20.2871H97.5332H96.5332C96.5332 21.0822 97.0792 21.7174 97.5959 22.1712L98.2559 21.4199ZM97.5332 20.2871H98.5332C98.5332 20.1299 98.5786 19.8767 98.7313 19.5057L97.8066 19.125L96.882 18.7443C96.6701 19.2587 96.5332 19.7802 96.5332 20.2871H97.5332ZM97.8066 19.125L98.7293 19.5106C98.8982 19.1064 99.1233 18.6305 99.4077 18.0805L98.5195 17.6211L97.6313 17.1617C97.3298 17.7445 97.0796 18.2712 96.884 18.7394L97.8066 19.125ZM98.5195 17.6211L99.3986 18.0977L101.469 14.2794L100.59 13.8027L99.7107 13.3261L97.6404 17.1444L98.5195 17.6211ZM100.59 13.8027L99.9201 13.0602C98.9337 13.9498 98.232 14.4713 97.7867 14.7016L98.2461 15.5898L98.7055 16.4781C99.393 16.1225 100.254 15.4525 101.26 14.5453L100.59 13.8027ZM98.2461 15.5898L97.7948 14.6975C97.2635 14.9662 96.8649 15.1167 96.5833 15.1824L96.8105 16.1562L97.0378 17.1301C97.5375 17.0135 98.0959 16.7864 98.6974 16.4822L98.2461 15.5898ZM96.8105 16.1562L96.5641 15.1871C96.2682 15.2623 95.9414 15.3027 95.5801 15.3027V16.3027V17.3027C96.0911 17.3027 96.5847 17.2455 97.0569 17.1254L96.8105 16.1562ZM95.5801 16.3027V15.3027C95.2952 15.3027 95.0908 15.2435 94.9359 15.1568L94.4473 16.0293L93.9587 16.9018C94.4548 17.1796 95.0055 17.3027 95.5801 17.3027V16.3027ZM94.4473 16.0293L94.9224 15.1494C94.7299 15.0454 94.5753 14.9092 94.4493 14.7335L93.6367 15.3164L92.8242 15.8993C93.1278 16.3226 93.5136 16.6616 93.9721 16.9092L94.4473 16.0293ZM93.6367 15.3164L94.4547 14.7411C94.1885 14.3627 94.0117 13.8103 94.0117 13.002H93.0117H92.0117C92.0117 14.0946 92.2516 15.0852 92.8188 15.8917L93.6367 15.3164ZM93.0117 13.002H94.0117C94.0117 12.1675 94.2202 11.3278 94.6619 10.4726L93.7734 10.0137L92.885 9.55473C92.3111 10.6657 92.0117 11.8182 92.0117 13.002H93.0117ZM93.7734 10.0137L94.6654 10.4657C95.089 9.62988 95.6348 8.98141 96.2975 8.49648L95.707 7.68945L95.1165 6.88242C94.1777 7.56937 93.4344 8.47038 92.8814 9.56164L93.7734 10.0137ZM95.707 7.68945L96.3011 8.49389C97.0073 7.97237 97.6729 7.75195 98.3145 7.75195V6.75195V5.75195C97.1722 5.75195 96.0995 6.15654 95.113 6.88502L95.707 7.68945ZM98.3145 6.75195V7.75195C98.4756 7.75195 98.5826 7.76803 98.6478 7.785C98.7114 7.80156 98.7196 7.81474 98.7023 7.8013C98.6801 7.78392 98.6593 7.75646 98.649 7.73226C98.6412 7.71409 98.6523 7.72792 98.6523 7.79688H99.6523H100.652C100.652 7.21942 100.455 6.63243 99.9334 6.22507C99.4588 5.85442 98.8631 5.75195 98.3145 5.75195V6.75195ZM99.6523 7.79688H98.6523C98.6523 7.75705 98.6592 7.84588 98.5063 8.11279C98.3645 8.36031 98.1307 8.68316 97.7822 9.08661L98.5391 9.74023L99.2959 10.3939C99.6896 9.93793 100.012 9.5072 100.242 9.10694C100.46 8.72606 100.652 8.27289 100.652 7.79688H99.6523ZM98.5391 9.74023L97.7847 9.08377C97.0233 9.95872 96.4258 10.9047 96.4258 11.8496H97.4258H98.4258C98.4258 11.6877 98.5704 11.2275 99.2934 10.3967L98.5391 9.74023Z" fill="white" mask="url(#path-1-outside-1_646_1851)"/>
</g>
<defs>
<filter id="filter0_d_646_1851" x="0.589844" y="0.126953" width="114.902" height="31.1523" filterUnits="userSpaceOnUse" color-interpolation-filters="sRGB">
<feFlood flood-opacity="0" result="BackgroundImageFix"/>
<feColorMatrix in="SourceAlpha" type="matrix" values="0 0 0 0 0 0 0 0 0 0 0 0 0 0 0 0 0 0 127 0" result="hardAlpha"/>
<feOffset dy="4"/>
<feGaussianBlur stdDeviation="2"/>
<feComposite in2="hardAlpha" operator="out"/>
<feColorMatrix type="matrix" values="0 0 0 0 1 0 0 0 0 0.980769 0 0 0 0 0.980769 0 0 0 0.25 0"/>
<feBlend mode="normal" in2="BackgroundImageFix" result="effect1_dropShadow_646_1851"/>
<feBlend mode="normal" in="SourceGraphic" in2="effect1_dropShadow_646_1851" result="shape"/>
</filter>
</defs>
</svg>
