<svg width="19" height="19" viewBox="0 0 19 19" fill="none" xmlns="http://www.w3.org/2000/svg">
<path fill-rule="evenodd" clip-rule="evenodd" d="M9.50012 11.611C9.50012 10.7711 9.83376 9.96565 10.4276 9.37178C11.0215 8.77791 11.827 8.44427 12.6668 8.44427H16.8891C17.449 8.44427 17.986 8.6667 18.3819 9.06261C18.7778 9.45853 19.0002 9.9955 19.0002 10.5554V12.6665C19.0002 13.2265 18.7778 13.7634 18.3819 14.1593C17.986 14.5553 17.449 14.7777 16.8891 14.7777H12.6668C11.827 14.7777 11.0215 14.444 10.4276 13.8502C9.83376 13.2563 9.50012 12.4508 9.50012 11.611ZM12.6668 10.5554C12.3869 10.5554 12.1184 10.6666 11.9204 10.8646C11.7225 11.0625 11.6113 11.331 11.6113 11.611C11.6113 11.8909 11.7225 12.1594 11.9204 12.3574C12.1184 12.5553 12.3869 12.6665 12.6668 12.6665H16.8891V10.5554H12.6668Z" fill="white"/>
<path fill-rule="evenodd" clip-rule="evenodd" d="M9.80939 0.309056C10.0073 0.111167 10.2758 0 10.5557 0C10.8356 0 11.104 0.111167 11.302 0.309056L14.1594 3.16648H11.1742L9.80939 1.80163C9.61151 1.60368 9.50034 1.33524 9.50034 1.05534C9.50034 0.775444 9.61151 0.507004 9.80939 0.309056ZM9.93712 3.16648L7.0797 0.309056C6.88175 0.111167 6.61331 0 6.33341 0C6.05351 0 5.78507 0.111167 5.58712 0.309056L2.7297 3.16648H9.93712ZM1.67413 4.22205L1.61502 4.2801C1.15448 4.39145 0.74479 4.65448 0.451851 5.02687C0.158913 5.39927 -0.000238813 5.85938 2.68972e-07 6.33318V16.8889C2.68972e-07 17.4488 0.222423 17.9857 0.618338 18.3817C1.01425 18.7776 1.55123 19 2.11114 19H14.778C15.3379 19 15.8748 18.7776 16.2708 18.3817C16.6667 17.9857 16.8891 17.4488 16.8891 16.8889H12.6668C11.267 16.8889 9.92461 16.3328 8.93482 15.343C7.94503 14.3532 7.38898 13.0108 7.38898 11.611C7.38898 10.2113 7.94503 8.86881 8.93482 7.87903C9.92461 6.88924 11.267 6.33318 12.6668 6.33318H16.8891C16.8893 5.85938 16.7302 5.39927 16.4372 5.02687C16.1443 4.65448 15.7346 4.39145 15.2741 4.2801L15.215 4.22205H1.67413Z" fill="white"/>
</svg>
